%TF.GenerationSoftware,Altium Limited,Altium Designer,21.4.1 (30)*%
G04 Layer_Physical_Order=2*
G04 Layer_Color=16711680*
%FSLAX44Y44*%
%MOMM*%
%TF.SameCoordinates,EB49FF53-C53B-41EF-AC46-A12079E47AB4*%
%TF.FilePolarity,Positive*%
%TF.FileFunction,Copper,L2,Bot,Signal*%
%TF.Part,Single*%
G01*
G75*
%TA.AperFunction,Conductor*%
%ADD24C,0.2540*%
%ADD25C,0.4000*%
%TA.AperFunction,ComponentPad*%
%ADD27R,1.9500X1.9500*%
%ADD28C,1.9500*%
%ADD29C,1.8500*%
%ADD30R,1.5000X1.5000*%
%ADD31C,1.5000*%
%ADD32R,1.5000X1.5000*%
%TA.AperFunction,ViaPad*%
%ADD33C,0.7000*%
%ADD34C,2.5000*%
%TA.AperFunction,Conductor*%
%ADD35C,1.0000*%
G36*
X570230Y0D02*
X0D01*
Y820420D01*
X570230D01*
Y0D01*
D02*
G37*
%LPC*%
G36*
X240823Y794530D02*
X237917D01*
X235068Y793963D01*
X232383Y792851D01*
X229968Y791237D01*
X227913Y789183D01*
X226299Y786767D01*
X225187Y784083D01*
X224620Y781233D01*
Y778327D01*
X225187Y775478D01*
X226299Y772794D01*
X227913Y770378D01*
X229968Y768323D01*
X232383Y766709D01*
X235068Y765597D01*
X237917Y765030D01*
X240823D01*
X243673Y765597D01*
X246357Y766709D01*
X248773Y768323D01*
X250827Y770378D01*
X252442Y772794D01*
X253553Y775478D01*
X254120Y778327D01*
Y781233D01*
X253553Y784083D01*
X252442Y786767D01*
X250827Y789183D01*
X248773Y791237D01*
X246357Y792851D01*
X243673Y793963D01*
X240823Y794530D01*
D02*
G37*
G36*
X190823D02*
X187917D01*
X185068Y793963D01*
X182383Y792851D01*
X179968Y791237D01*
X177913Y789183D01*
X176299Y786767D01*
X175187Y784083D01*
X174620Y781233D01*
Y778327D01*
X175187Y775478D01*
X176299Y772794D01*
X177913Y770378D01*
X179968Y768323D01*
X182383Y766709D01*
X185068Y765597D01*
X187917Y765030D01*
X190823D01*
X193673Y765597D01*
X196357Y766709D01*
X198773Y768323D01*
X200827Y770378D01*
X202442Y772794D01*
X203553Y775478D01*
X204120Y778327D01*
Y781233D01*
X203553Y784083D01*
X202442Y786767D01*
X200827Y789183D01*
X198773Y791237D01*
X196357Y792851D01*
X193673Y793963D01*
X190823Y794530D01*
D02*
G37*
G36*
X140823D02*
X137917D01*
X135068Y793963D01*
X132383Y792851D01*
X129968Y791237D01*
X127913Y789183D01*
X126299Y786767D01*
X125187Y784083D01*
X124620Y781233D01*
Y778327D01*
X125187Y775478D01*
X126299Y772794D01*
X127913Y770378D01*
X129968Y768323D01*
X132383Y766709D01*
X135068Y765597D01*
X137917Y765030D01*
X140823D01*
X143673Y765597D01*
X146357Y766709D01*
X148773Y768323D01*
X150827Y770378D01*
X152442Y772794D01*
X153553Y775478D01*
X154120Y778327D01*
Y781233D01*
X153553Y784083D01*
X152442Y786767D01*
X150827Y789183D01*
X148773Y791237D01*
X146357Y792851D01*
X143673Y793963D01*
X140823Y794530D01*
D02*
G37*
G36*
X90823D02*
X87917D01*
X85068Y793963D01*
X82383Y792851D01*
X79968Y791237D01*
X77913Y789183D01*
X76299Y786767D01*
X75187Y784083D01*
X74620Y781233D01*
Y778327D01*
X75187Y775478D01*
X76299Y772794D01*
X77913Y770378D01*
X79968Y768323D01*
X82383Y766709D01*
X85068Y765597D01*
X87917Y765030D01*
X90823D01*
X93673Y765597D01*
X96357Y766709D01*
X98773Y768323D01*
X100827Y770378D01*
X102442Y772794D01*
X103553Y775478D01*
X104120Y778327D01*
Y781233D01*
X103553Y784083D01*
X102442Y786767D01*
X100827Y789183D01*
X98773Y791237D01*
X96357Y792851D01*
X93673Y793963D01*
X90823Y794530D01*
D02*
G37*
G36*
X54120D02*
X24620D01*
Y765030D01*
X54120D01*
Y794530D01*
D02*
G37*
G36*
X43481Y675040D02*
X40519D01*
X37613Y674462D01*
X34876Y673328D01*
X32413Y671682D01*
X30318Y669587D01*
X28672Y667124D01*
X27538Y664387D01*
X26960Y661481D01*
Y658519D01*
X27538Y655613D01*
X28672Y652876D01*
X30318Y650413D01*
X32413Y648318D01*
X34876Y646672D01*
X37613Y645538D01*
X40519Y644960D01*
X43481D01*
X46387Y645538D01*
X49124Y646672D01*
X51587Y648318D01*
X53682Y650413D01*
X55328Y652876D01*
X56462Y655613D01*
X57040Y658519D01*
Y661481D01*
X56462Y664387D01*
X55328Y667124D01*
X53682Y669587D01*
X51587Y671682D01*
X49124Y673328D01*
X46387Y674462D01*
X43481Y675040D01*
D02*
G37*
G36*
X512140Y794530D02*
X482640D01*
Y765030D01*
X489326D01*
X489426Y764639D01*
X489628Y763352D01*
X489756Y761821D01*
X489785Y760644D01*
Y649882D01*
X490044Y647913D01*
X490804Y646079D01*
X492012Y644504D01*
X499392Y637125D01*
X499554Y636955D01*
X499940Y636514D01*
X499517Y635492D01*
X498950Y632643D01*
Y629737D01*
X499517Y626888D01*
X500629Y624203D01*
X502243Y621787D01*
X504297Y619733D01*
X506713Y618119D01*
X509398Y617007D01*
X512247Y616440D01*
X515153D01*
X518002Y617007D01*
X520687Y618119D01*
X523103Y619733D01*
X525157Y621787D01*
X526771Y624203D01*
X527883Y626888D01*
X528450Y629737D01*
Y632643D01*
X527883Y635492D01*
X526771Y638177D01*
X525157Y640593D01*
X523103Y642647D01*
X520687Y644261D01*
X518002Y645373D01*
X515153Y645940D01*
X512247D01*
X512146Y645920D01*
X511837Y646190D01*
X504995Y653032D01*
Y760644D01*
X505024Y761821D01*
X505152Y763352D01*
X505354Y764639D01*
X505454Y765030D01*
X512140D01*
Y794530D01*
D02*
G37*
G36*
X398843D02*
X395937D01*
X393088Y793963D01*
X390403Y792851D01*
X387987Y791237D01*
X385933Y789183D01*
X384319Y786767D01*
X383207Y784083D01*
X382640Y781233D01*
Y778327D01*
X383207Y775478D01*
X384319Y772794D01*
X385933Y770378D01*
X387987Y768323D01*
X389733Y767157D01*
X389784Y766495D01*
X389785Y766424D01*
Y646047D01*
X389779Y645768D01*
X389755Y645444D01*
X389398Y645373D01*
X386713Y644261D01*
X384297Y642647D01*
X382243Y640593D01*
X380629Y638177D01*
X379517Y635492D01*
X378950Y632643D01*
Y629737D01*
X379517Y626888D01*
X380629Y624203D01*
X382243Y621787D01*
X384297Y619733D01*
X386713Y618119D01*
X389398Y617007D01*
X392247Y616440D01*
X395153D01*
X398002Y617007D01*
X400687Y618119D01*
X403103Y619733D01*
X405157Y621787D01*
X406771Y624203D01*
X407883Y626888D01*
X408450Y629737D01*
Y632643D01*
X407883Y635492D01*
X406771Y638177D01*
X405157Y640593D01*
X405110Y640640D01*
X404995Y645453D01*
Y766424D01*
X404996Y766495D01*
X405047Y767157D01*
X406793Y768323D01*
X408847Y770378D01*
X410461Y772794D01*
X411573Y775478D01*
X412140Y778327D01*
Y781233D01*
X411573Y784083D01*
X410461Y786767D01*
X408847Y789183D01*
X406793Y791237D01*
X404377Y792851D01*
X401692Y793963D01*
X398843Y794530D01*
D02*
G37*
G36*
X19656Y630200D02*
X15904D01*
X12280Y629229D01*
X9031Y627353D01*
X6377Y624700D01*
X4501Y621451D01*
X3530Y617826D01*
Y614074D01*
X4501Y610450D01*
X6377Y607201D01*
X9031Y604547D01*
X12280Y602671D01*
X13151Y602438D01*
Y601980D01*
X13151Y601980D01*
X13504Y600208D01*
X14507Y598707D01*
X24667Y588547D01*
X24667Y588547D01*
X26169Y587543D01*
X27940Y587191D01*
X38759D01*
X39152Y585725D01*
X40798Y582875D01*
X43125Y580548D01*
X45975Y578902D01*
X49155Y578050D01*
X52446D01*
X55625Y578902D01*
X58475Y580548D01*
X60803Y582875D01*
X61411Y583929D01*
X62681Y583588D01*
Y553720D01*
X62681Y553720D01*
X63033Y551949D01*
X64037Y550447D01*
X69796Y544688D01*
X69170Y543517D01*
X68580Y543635D01*
X62700D01*
X62448Y544575D01*
X60803Y547425D01*
X58475Y549753D01*
X55625Y551398D01*
X52446Y552250D01*
X49155D01*
X45975Y551398D01*
X43125Y549753D01*
X40798Y547425D01*
X39152Y544575D01*
X38300Y541396D01*
Y538105D01*
X39152Y534925D01*
X40798Y532075D01*
X43125Y529748D01*
X45975Y528102D01*
X47448Y527708D01*
Y526393D01*
X45975Y525998D01*
X43125Y524353D01*
X40798Y522025D01*
X39152Y519175D01*
X38300Y515996D01*
Y512705D01*
X39152Y509525D01*
X40798Y506675D01*
X43125Y504348D01*
X45975Y502702D01*
X47448Y502308D01*
Y500993D01*
X45975Y500598D01*
X43125Y498953D01*
X40798Y496625D01*
X39152Y493775D01*
X38300Y490596D01*
Y487305D01*
X39152Y484125D01*
X40798Y481275D01*
X43125Y478948D01*
X45975Y477302D01*
X49155Y476450D01*
X52446D01*
X55625Y477302D01*
X58475Y478948D01*
X60803Y481275D01*
X62448Y484125D01*
X63300Y487305D01*
Y490596D01*
X62448Y493775D01*
X60803Y496625D01*
X58475Y498953D01*
X55625Y500598D01*
X54153Y500993D01*
Y502308D01*
X55625Y502702D01*
X58475Y504348D01*
X60803Y506675D01*
X62448Y509525D01*
X62700Y510466D01*
X64431D01*
X67235Y507661D01*
Y317077D01*
X65999Y315841D01*
X65080Y313621D01*
Y311219D01*
X65999Y308999D01*
X67699Y307299D01*
X69919Y306380D01*
X72321D01*
X74541Y307299D01*
X76241Y308999D01*
X77160Y311219D01*
Y313621D01*
X76241Y315841D01*
X75005Y317077D01*
Y322565D01*
X76275Y323414D01*
X77539Y322890D01*
X79941D01*
X82161Y323810D01*
X83861Y325509D01*
X84780Y327729D01*
Y330131D01*
X83861Y332351D01*
X82625Y333587D01*
Y335753D01*
X83895Y336279D01*
X95701Y324472D01*
Y305082D01*
X95686Y304901D01*
X95683Y304885D01*
X95210Y304412D01*
X94290Y302192D01*
Y299789D01*
X95210Y297569D01*
X96909Y295870D01*
X99129Y294950D01*
X101532D01*
X103752Y295870D01*
X105451Y297569D01*
X106370Y299789D01*
Y302192D01*
X105451Y304412D01*
X104978Y304884D01*
X104959Y305157D01*
Y326390D01*
X104959Y326390D01*
X104607Y328161D01*
X103603Y329663D01*
X103603Y329663D01*
X90989Y342277D01*
Y430178D01*
X92162Y430664D01*
X93020Y429806D01*
Y428059D01*
X93940Y425839D01*
X95639Y424140D01*
X97859Y423220D01*
X100261D01*
X102481Y424140D01*
X104180Y425839D01*
X105100Y428059D01*
Y430461D01*
X104180Y432681D01*
X102481Y434380D01*
X100261Y435300D01*
X98514D01*
X96055Y437759D01*
Y471594D01*
X97325Y472227D01*
X99129Y471480D01*
X101531D01*
X103751Y472399D01*
X105450Y474099D01*
X106370Y476319D01*
Y478721D01*
X105450Y480941D01*
X104215Y482177D01*
Y541020D01*
X103919Y542506D01*
X103077Y543767D01*
X92814Y554030D01*
X93340Y555300D01*
X94527D01*
X121846Y527981D01*
Y482177D01*
X120610Y480941D01*
X119690Y478721D01*
Y476319D01*
X120610Y474099D01*
X122309Y472399D01*
X124529Y471480D01*
X126931D01*
X129151Y472399D01*
X130850Y474099D01*
X131393Y475408D01*
X132767D01*
X133309Y474099D01*
X135009Y472399D01*
X137229Y471480D01*
X139631D01*
X141851Y472399D01*
X143551Y474099D01*
X144470Y476319D01*
Y478721D01*
X143551Y480941D01*
X142315Y482177D01*
Y584372D01*
X148057Y590115D01*
X148769Y589820D01*
X151171D01*
X153391Y590740D01*
X155090Y592439D01*
X156010Y594659D01*
Y597061D01*
X155090Y599281D01*
X154481Y599891D01*
X155007Y601161D01*
X178153D01*
X260399Y518915D01*
X260515Y518776D01*
X260525Y518763D01*
Y518094D01*
X261444Y515874D01*
X263144Y514174D01*
X265364Y513255D01*
X267766D01*
X269986Y514174D01*
X271686Y515874D01*
X272605Y518094D01*
Y520496D01*
X271686Y522716D01*
X269986Y524416D01*
X267766Y525335D01*
X267098D01*
X266892Y525515D01*
X183343Y609063D01*
X181841Y610067D01*
X180070Y610419D01*
X180070Y610419D01*
X129822D01*
X129641Y610435D01*
X129625Y610437D01*
X129151Y610910D01*
X126931Y611830D01*
X124529D01*
X122309Y610910D01*
X120610Y609211D01*
X119690Y606991D01*
Y604589D01*
X120610Y602369D01*
X122309Y600670D01*
X124529Y599750D01*
X126931D01*
X129151Y600670D01*
X129624Y601142D01*
X129897Y601161D01*
X144933D01*
X145459Y599891D01*
X144850Y599281D01*
X143930Y597061D01*
Y596975D01*
X135683Y588728D01*
X134841Y587468D01*
X134545Y585981D01*
Y482177D01*
X133309Y480941D01*
X132767Y479632D01*
X131393D01*
X130850Y480941D01*
X129615Y482177D01*
Y529590D01*
X129319Y531077D01*
X128477Y532337D01*
X100020Y560794D01*
Y562541D01*
X99101Y564761D01*
X97401Y566460D01*
X95181Y567380D01*
X92779D01*
X90559Y566460D01*
X88860Y564761D01*
X87940Y562541D01*
Y561973D01*
X86670Y561294D01*
X86435Y561451D01*
Y585711D01*
X90783Y590059D01*
X92642D01*
X94862Y590979D01*
X96561Y592678D01*
X97480Y594898D01*
Y597300D01*
X96561Y599520D01*
X94862Y601219D01*
X92642Y602139D01*
X90239D01*
X88019Y601219D01*
X86320Y599520D01*
X85400Y597300D01*
Y595664D01*
X79803Y590067D01*
X78961Y588807D01*
X78815Y588071D01*
X77545Y588196D01*
Y607060D01*
X77249Y608547D01*
X76407Y609807D01*
X67517Y618697D01*
X66256Y619539D01*
X64770Y619835D01*
X63300D01*
Y628450D01*
X38300D01*
Y603450D01*
X45741D01*
X45975Y602198D01*
X43125Y600553D01*
X40798Y598225D01*
X39772Y596449D01*
X29857D01*
X24243Y602063D01*
X24409Y603323D01*
X26530Y604547D01*
X29183Y607201D01*
X31059Y610450D01*
X32030Y614074D01*
Y617826D01*
X31059Y621451D01*
X29183Y624700D01*
X26530Y627353D01*
X23280Y629229D01*
X19656Y630200D01*
D02*
G37*
G36*
X515153Y523940D02*
X512247D01*
X509398Y523373D01*
X506713Y522261D01*
X504297Y520647D01*
X502243Y518593D01*
X500629Y516177D01*
X499517Y513492D01*
X498950Y510643D01*
Y507737D01*
X499517Y504888D01*
X500629Y502203D01*
X502243Y499787D01*
X504297Y497733D01*
X506713Y496119D01*
X509398Y495007D01*
X512247Y494440D01*
X515153D01*
X518002Y495007D01*
X520687Y496119D01*
X523103Y497733D01*
X525157Y499787D01*
X526771Y502203D01*
X527883Y504888D01*
X528450Y507737D01*
Y510643D01*
X527883Y513492D01*
X526771Y516177D01*
X525157Y518593D01*
X523103Y520647D01*
X520687Y522261D01*
X518002Y523373D01*
X515153Y523940D01*
D02*
G37*
G36*
X395153D02*
X392247D01*
X389398Y523373D01*
X386713Y522261D01*
X384297Y520647D01*
X382243Y518593D01*
X380629Y516177D01*
X379517Y513492D01*
X378950Y510643D01*
Y507737D01*
X379517Y504888D01*
X380629Y502203D01*
X382243Y499787D01*
X384297Y497733D01*
X386713Y496119D01*
X389398Y495007D01*
X392247Y494440D01*
X395153D01*
X398002Y495007D01*
X400687Y496119D01*
X403103Y497733D01*
X405157Y499787D01*
X406771Y502203D01*
X407883Y504888D01*
X408450Y507737D01*
Y510643D01*
X407883Y513492D01*
X406771Y516177D01*
X405157Y518593D01*
X403103Y520647D01*
X400687Y522261D01*
X398002Y523373D01*
X395153Y523940D01*
D02*
G37*
G36*
X448843Y794530D02*
X445937D01*
X443088Y793963D01*
X440403Y792851D01*
X437987Y791237D01*
X435933Y789183D01*
X434319Y786767D01*
X433207Y784083D01*
X432640Y781233D01*
Y778327D01*
X433207Y775478D01*
X434319Y772794D01*
X435933Y770378D01*
X437987Y768323D01*
X439733Y767157D01*
X439784Y766495D01*
X439785Y766424D01*
Y498071D01*
X440044Y496102D01*
X440321Y495434D01*
X439517Y493492D01*
X438950Y490643D01*
Y487737D01*
X439517Y484888D01*
X440629Y482203D01*
X442243Y479787D01*
X444297Y477733D01*
X446713Y476119D01*
X449398Y475007D01*
X449115Y473785D01*
X214630D01*
X213143Y473489D01*
X211883Y472647D01*
X189776Y450540D01*
X188029D01*
X185809Y449621D01*
X184109Y447921D01*
X183190Y445701D01*
Y444983D01*
X181920Y444731D01*
X181651Y445381D01*
X179951Y447080D01*
X177731Y448000D01*
X175329D01*
X173109Y447080D01*
X171409Y445381D01*
X170695Y443655D01*
X169317Y443237D01*
X164037Y448517D01*
X162777Y449359D01*
X161290Y449655D01*
X155787D01*
X154551Y450891D01*
X152331Y451810D01*
X150490D01*
X149964Y453080D01*
X160844Y463960D01*
X161686Y465220D01*
X161981Y466707D01*
Y520423D01*
X161686Y521909D01*
X160844Y523170D01*
X158550Y525463D01*
Y527211D01*
X157630Y529431D01*
X155931Y531130D01*
X153711Y532050D01*
X151308D01*
X149088Y531130D01*
X147389Y529431D01*
X146470Y527211D01*
Y524808D01*
X147389Y522588D01*
X149088Y520889D01*
X151308Y519970D01*
X153056D01*
X154212Y518814D01*
Y498431D01*
X152942Y497949D01*
X150882Y498802D01*
X148479D01*
X146259Y497882D01*
X144560Y496183D01*
X143640Y493964D01*
Y491561D01*
X144560Y489341D01*
X145795Y488105D01*
Y468789D01*
X134413Y457407D01*
X133571Y456147D01*
X133275Y454660D01*
Y438150D01*
X133571Y436663D01*
X134413Y435403D01*
X199315Y370501D01*
Y320379D01*
X189776Y310840D01*
X188029D01*
X185809Y309921D01*
X184109Y308221D01*
X183190Y306001D01*
Y303599D01*
X184109Y301379D01*
X185809Y299680D01*
X188029Y298760D01*
X190431D01*
X192651Y299680D01*
X194350Y301379D01*
X194893Y302688D01*
X196267D01*
X196810Y301379D01*
X198509Y299680D01*
X200729Y298760D01*
X203131D01*
X205351Y299680D01*
X207050Y301379D01*
X207970Y303599D01*
Y305346D01*
X213567Y310943D01*
X214409Y312203D01*
X214705Y313690D01*
Y372110D01*
X214409Y373597D01*
X213567Y374857D01*
X166875Y421549D01*
X167685Y422535D01*
X168693Y421861D01*
X170180Y421565D01*
X209550D01*
X211037Y421861D01*
X212297Y422703D01*
X220117Y430523D01*
X221495Y430105D01*
X222209Y428379D01*
X223909Y426679D01*
X226129Y425760D01*
X228531D01*
X230751Y426679D01*
X232451Y428379D01*
X233370Y430599D01*
Y432346D01*
X241639Y440615D01*
X270366D01*
X271215Y439345D01*
X270820Y438391D01*
Y435989D01*
X271360Y434684D01*
X270441Y433690D01*
X268039D01*
X265819Y432770D01*
X264119Y431071D01*
X263200Y428851D01*
Y426449D01*
X264119Y424229D01*
X265819Y422529D01*
X268039Y421610D01*
X270441D01*
X270528Y421646D01*
X271500Y420674D01*
X270820Y419031D01*
Y416629D01*
X271740Y414409D01*
X273439Y412710D01*
X275659Y411790D01*
X278061D01*
X280281Y412710D01*
X281517Y413945D01*
X430301D01*
X485560Y358686D01*
Y356939D01*
X486479Y354719D01*
X487715Y353483D01*
Y313580D01*
X488011Y312093D01*
X488853Y310833D01*
X540019Y259668D01*
X539532Y258825D01*
X538680Y255646D01*
Y252354D01*
X539532Y249175D01*
X541177Y246325D01*
X543505Y243997D01*
X546355Y242352D01*
X549534Y241500D01*
X552826D01*
X556005Y242352D01*
X558855Y243997D01*
X561183Y246325D01*
X562828Y249175D01*
X563680Y252354D01*
Y255646D01*
X562828Y258825D01*
X561183Y261675D01*
X558855Y264002D01*
X556005Y265648D01*
X554533Y266043D01*
Y267357D01*
X556005Y267752D01*
X558855Y269398D01*
X561183Y271725D01*
X562828Y274575D01*
X563680Y277754D01*
Y281046D01*
X562828Y284225D01*
X561183Y287075D01*
X558855Y289403D01*
X556005Y291048D01*
X554533Y291443D01*
Y292757D01*
X556005Y293152D01*
X558855Y294797D01*
X561183Y297125D01*
X562828Y299975D01*
X563680Y303154D01*
Y306446D01*
X562828Y309625D01*
X561183Y312475D01*
X558855Y314802D01*
X556005Y316448D01*
X554533Y316843D01*
Y318157D01*
X556005Y318552D01*
X558855Y320197D01*
X561183Y322525D01*
X562828Y325375D01*
X563680Y328554D01*
Y331846D01*
X562828Y335025D01*
X561183Y337875D01*
X558855Y340202D01*
X556005Y341848D01*
X554533Y342243D01*
Y343557D01*
X556005Y343952D01*
X558855Y345597D01*
X561183Y347925D01*
X562828Y350775D01*
X563680Y353954D01*
Y357246D01*
X562828Y360425D01*
X561183Y363275D01*
X558855Y365602D01*
X556005Y367248D01*
X554533Y367643D01*
Y368957D01*
X556005Y369352D01*
X558855Y370998D01*
X561183Y373325D01*
X562828Y376175D01*
X563680Y379354D01*
Y382646D01*
X562828Y385825D01*
X561183Y388675D01*
X558855Y391003D01*
X556005Y392648D01*
X554533Y393043D01*
Y394357D01*
X556005Y394752D01*
X558855Y396398D01*
X561183Y398725D01*
X562828Y401575D01*
X563680Y404754D01*
Y408046D01*
X562828Y411225D01*
X561183Y414075D01*
X558855Y416403D01*
X556005Y418048D01*
X554533Y418443D01*
Y419757D01*
X556005Y420152D01*
X558855Y421797D01*
X561183Y424125D01*
X562828Y426975D01*
X563680Y430154D01*
Y433446D01*
X562828Y436625D01*
X561183Y439475D01*
X558855Y441802D01*
X556005Y443448D01*
X554533Y443843D01*
Y445157D01*
X556005Y445552D01*
X558855Y447197D01*
X561183Y449525D01*
X562828Y452375D01*
X563680Y455554D01*
Y458846D01*
X562828Y462025D01*
X561183Y464875D01*
X558855Y467202D01*
X556005Y468848D01*
X554533Y469243D01*
Y470557D01*
X556005Y470952D01*
X558855Y472598D01*
X561183Y474925D01*
X562828Y477775D01*
X563680Y480954D01*
Y484246D01*
X562828Y487425D01*
X561183Y490275D01*
X558855Y492603D01*
X556005Y494248D01*
X554533Y494643D01*
Y495957D01*
X556005Y496352D01*
X558855Y497998D01*
X561183Y500325D01*
X562828Y503175D01*
X563680Y506354D01*
Y509646D01*
X562828Y512825D01*
X561183Y515675D01*
X558855Y518003D01*
X556005Y519648D01*
X552826Y520500D01*
X549534D01*
X546355Y519648D01*
X543505Y518003D01*
X541177Y515675D01*
X539532Y512825D01*
X538680Y509646D01*
Y506354D01*
X539532Y503175D01*
X541177Y500325D01*
X543505Y497998D01*
X546355Y496352D01*
X547827Y495957D01*
Y494643D01*
X546355Y494248D01*
X543505Y492603D01*
X541177Y490275D01*
X539532Y487425D01*
X538680Y484246D01*
Y480954D01*
X539532Y477775D01*
X541177Y474925D01*
X543505Y472598D01*
X546355Y470952D01*
X547827Y470557D01*
Y469243D01*
X546355Y468848D01*
X545512Y468362D01*
X541227Y472647D01*
X539967Y473489D01*
X538480Y473785D01*
X458285D01*
X458002Y475007D01*
X460687Y476119D01*
X463103Y477733D01*
X465157Y479787D01*
X466771Y482203D01*
X467883Y484888D01*
X468450Y487737D01*
Y490643D01*
X467883Y493492D01*
X466771Y496177D01*
X465157Y498593D01*
X463103Y500647D01*
X460687Y502261D01*
X458002Y503373D01*
X455153Y503940D01*
X454995D01*
Y766424D01*
X454996Y766495D01*
X455047Y767157D01*
X456793Y768323D01*
X458847Y770378D01*
X460461Y772794D01*
X461573Y775478D01*
X462140Y778327D01*
Y781233D01*
X461573Y784083D01*
X460461Y786767D01*
X458847Y789183D01*
X456793Y791237D01*
X454377Y792851D01*
X451692Y793963D01*
X448843Y794530D01*
D02*
G37*
G36*
X270441Y411170D02*
X268039D01*
X265819Y410251D01*
X264119Y408551D01*
X263200Y406331D01*
Y403929D01*
X264119Y401709D01*
X265819Y400009D01*
X268039Y399090D01*
X270441D01*
X272661Y400009D01*
X273897Y401245D01*
X388281D01*
X396855Y392671D01*
Y339293D01*
X396853Y339267D01*
X396777Y338944D01*
X396617Y338509D01*
X396566Y338404D01*
X395240Y338049D01*
X391990Y336173D01*
X389337Y333520D01*
X388151Y331465D01*
X386881Y331805D01*
Y382814D01*
X386585Y384300D01*
X385743Y385561D01*
X385743Y385561D01*
X375978Y395326D01*
X374717Y396168D01*
X373231Y396464D01*
X281786D01*
X280275Y397975D01*
X278055Y398894D01*
X275653D01*
X273433Y397975D01*
X271733Y396275D01*
X270814Y394055D01*
Y391653D01*
X271733Y389433D01*
X273433Y387733D01*
X275653Y386814D01*
X278055D01*
X280275Y387733D01*
X281236Y388694D01*
X371622D01*
X379112Y381205D01*
Y298064D01*
X379407Y296577D01*
X380249Y295317D01*
X387724Y287843D01*
X387741Y287823D01*
X387915Y287540D01*
X388110Y287119D01*
X388148Y287009D01*
X387461Y285820D01*
X386490Y282196D01*
Y278444D01*
X387461Y274820D01*
X389337Y271570D01*
X391990Y268917D01*
X395240Y267041D01*
X398864Y266070D01*
X402616D01*
X406240Y267041D01*
X409490Y268917D01*
X412143Y271570D01*
X414019Y274820D01*
X414990Y278444D01*
Y282196D01*
X414019Y285820D01*
X412143Y289070D01*
X409490Y291723D01*
X406240Y293599D01*
X402616Y294570D01*
X398864D01*
X395240Y293599D01*
X394051Y292913D01*
X393941Y292950D01*
X393520Y293145D01*
X393237Y293319D01*
X393217Y293337D01*
X386881Y299673D01*
Y317735D01*
X388151Y318075D01*
X389337Y316020D01*
X391990Y313367D01*
X395240Y311491D01*
X398864Y310520D01*
X402616D01*
X406240Y311491D01*
X409490Y313367D01*
X412143Y316020D01*
X414019Y319270D01*
X414990Y322894D01*
Y326646D01*
X414019Y330270D01*
X412143Y333520D01*
X409490Y336173D01*
X406240Y338049D01*
X404914Y338404D01*
X404863Y338509D01*
X404703Y338944D01*
X404627Y339267D01*
X404625Y339293D01*
Y394280D01*
X404329Y395767D01*
X403487Y397027D01*
X392637Y407877D01*
X391377Y408719D01*
X389890Y409015D01*
X273897D01*
X272661Y410251D01*
X270441Y411170D01*
D02*
G37*
G36*
X271711Y347670D02*
X269309D01*
X267089Y346750D01*
X265389Y345051D01*
X264470Y342831D01*
Y340429D01*
X265389Y338209D01*
X266625Y336973D01*
Y298789D01*
X257086Y289250D01*
X255339D01*
X253119Y288330D01*
X251420Y286631D01*
X250500Y284411D01*
Y282009D01*
X251420Y279789D01*
X253119Y278090D01*
X255339Y277170D01*
X257741D01*
X259961Y278090D01*
X261660Y279789D01*
X262580Y282009D01*
Y283756D01*
X273257Y294433D01*
X274099Y295693D01*
X274395Y297180D01*
Y336973D01*
X275630Y338209D01*
X276550Y340429D01*
Y342831D01*
X275630Y345051D01*
X273931Y346750D01*
X271711Y347670D01*
D02*
G37*
G36*
X88831Y276550D02*
X86429D01*
X84209Y275630D01*
X82509Y273931D01*
X81590Y271711D01*
Y269309D01*
X82509Y267089D01*
X84209Y265389D01*
X86429Y264470D01*
X87097D01*
X87303Y264291D01*
X102051Y249543D01*
Y131629D01*
X59972D01*
X59791Y131645D01*
X59775Y131647D01*
X59301Y132121D01*
X57081Y133040D01*
X54679D01*
X52459Y132121D01*
X50760Y130421D01*
X49840Y128201D01*
Y125799D01*
X50760Y123579D01*
X52459Y121880D01*
X54679Y120960D01*
X57081D01*
X59301Y121880D01*
X59774Y122352D01*
X60047Y122371D01*
X102588D01*
X102769Y122355D01*
X102785Y122353D01*
X103259Y121880D01*
X105479Y120960D01*
X107881D01*
X110101Y121880D01*
X110574Y122352D01*
X110847Y122371D01*
X153388D01*
X153569Y122355D01*
X153585Y122353D01*
X154059Y121880D01*
X156279Y120960D01*
X158681D01*
X160901Y121880D01*
X161374Y122352D01*
X161647Y122371D01*
X204188D01*
X204369Y122355D01*
X204385Y122353D01*
X204859Y121880D01*
X207079Y120960D01*
X209481D01*
X211701Y121880D01*
X212174Y122352D01*
X212447Y122371D01*
X305788D01*
X305969Y122355D01*
X305985Y122353D01*
X306459Y121880D01*
X308679Y120960D01*
X311081D01*
X313301Y121880D01*
X313774Y122352D01*
X314047Y122371D01*
X356588D01*
X356769Y122355D01*
X356785Y122353D01*
X357259Y121880D01*
X359479Y120960D01*
X361881D01*
X364101Y121880D01*
X364574Y122352D01*
X364847Y122371D01*
X407388D01*
X407569Y122355D01*
X407585Y122353D01*
X408059Y121880D01*
X410279Y120960D01*
X412681D01*
X414901Y121880D01*
X415374Y122352D01*
X415647Y122371D01*
X458188D01*
X458369Y122355D01*
X458385Y122353D01*
X458859Y121880D01*
X461079Y120960D01*
X463481D01*
X465701Y121880D01*
X467401Y123579D01*
X468320Y125799D01*
Y128201D01*
X467401Y130421D01*
X466928Y130894D01*
X466909Y131167D01*
Y182233D01*
X507936Y223260D01*
X509490Y223017D01*
X510698Y220925D01*
X513025Y218598D01*
X515875Y216952D01*
X517347Y216557D01*
Y215243D01*
X515875Y214848D01*
X513025Y213202D01*
X510698Y210875D01*
X509052Y208025D01*
X508200Y204846D01*
Y201554D01*
X509052Y198375D01*
X510698Y195525D01*
X513025Y193197D01*
X515875Y191552D01*
X517347Y191157D01*
Y189843D01*
X515875Y189448D01*
X513025Y187803D01*
X510698Y185475D01*
X509052Y182625D01*
X508200Y179446D01*
Y176154D01*
X509052Y172975D01*
X510698Y170125D01*
X513025Y167798D01*
X515875Y166152D01*
X519054Y165300D01*
X522346D01*
X525525Y166152D01*
X528375Y167798D01*
X530703Y170125D01*
X532348Y172975D01*
X533200Y176154D01*
Y179446D01*
X532348Y182625D01*
X530703Y185475D01*
X528375Y187803D01*
X525525Y189448D01*
X524053Y189843D01*
Y191157D01*
X525525Y191552D01*
X528375Y193197D01*
X530703Y195525D01*
X532348Y198375D01*
X533200Y201554D01*
Y204846D01*
X532348Y208025D01*
X530703Y210875D01*
X528375Y213202D01*
X525525Y214848D01*
X524053Y215243D01*
Y216557D01*
X525525Y216952D01*
X528375Y218598D01*
X530703Y220925D01*
X532348Y223775D01*
X533200Y226954D01*
Y230246D01*
X532348Y233425D01*
X530703Y236275D01*
X528375Y238603D01*
X525525Y240248D01*
X522346Y241100D01*
X519054D01*
X515875Y240248D01*
X513025Y238603D01*
X510698Y236275D01*
X509052Y233425D01*
X508999Y233229D01*
X506730D01*
X506730Y233229D01*
X504959Y232877D01*
X503457Y231873D01*
X503457Y231873D01*
X459007Y187423D01*
X458003Y185921D01*
X457651Y184150D01*
X457651Y184150D01*
Y131629D01*
X415572D01*
X415391Y131645D01*
X415375Y131647D01*
X414901Y132121D01*
X412681Y133040D01*
X410279D01*
X408059Y132121D01*
X407586Y131648D01*
X407313Y131629D01*
X364772D01*
X364591Y131645D01*
X364575Y131647D01*
X364101Y132121D01*
X361881Y133040D01*
X359479D01*
X357259Y132121D01*
X356786Y131648D01*
X356513Y131629D01*
X313972D01*
X313791Y131645D01*
X313775Y131647D01*
X313301Y132121D01*
X311081Y133040D01*
X308679D01*
X306459Y132121D01*
X305986Y131648D01*
X305713Y131629D01*
X212372D01*
X212191Y131645D01*
X212175Y131647D01*
X211701Y132121D01*
X209481Y133040D01*
X207079D01*
X204859Y132121D01*
X204386Y131648D01*
X204113Y131629D01*
X161572D01*
X161391Y131645D01*
X161375Y131647D01*
X160901Y132121D01*
X158681Y133040D01*
X156279D01*
X154059Y132121D01*
X153586Y131648D01*
X153313Y131629D01*
X112333D01*
X112227Y132163D01*
X111309Y133536D01*
Y251460D01*
X111309Y251460D01*
X110957Y253231D01*
X109953Y254733D01*
X109953Y254733D01*
X99979Y264708D01*
X100465Y265881D01*
X206363D01*
X212728Y259516D01*
X211948Y258500D01*
X210565Y259298D01*
X207386Y260150D01*
X204094D01*
X200915Y259298D01*
X198065Y257652D01*
X195737Y255325D01*
X194092Y252475D01*
X193697Y251003D01*
X192383D01*
X191988Y252475D01*
X190343Y255325D01*
X188015Y257652D01*
X185165Y259298D01*
X181986Y260150D01*
X178694D01*
X175515Y259298D01*
X172665Y257652D01*
X170338Y255325D01*
X168692Y252475D01*
X167840Y249296D01*
Y246004D01*
X168692Y242825D01*
X170338Y239975D01*
X172665Y237647D01*
X175515Y236002D01*
X178694Y235150D01*
X181986D01*
X185165Y236002D01*
X188015Y237647D01*
X190343Y239975D01*
X191988Y242825D01*
X192383Y244297D01*
X193697D01*
X194092Y242825D01*
X195737Y239975D01*
X198065Y237647D01*
X200915Y236002D01*
X204094Y235150D01*
X207386D01*
X210565Y236002D01*
X213415Y237647D01*
X215742Y239975D01*
X217388Y242825D01*
X217783Y244297D01*
X219097D01*
X219492Y242825D01*
X221138Y239975D01*
X223465Y237647D01*
X226315Y236002D01*
X229494Y235150D01*
X232786D01*
X235965Y236002D01*
X238815Y237647D01*
X241143Y239975D01*
X242788Y242825D01*
X243640Y246004D01*
Y249296D01*
X242788Y252475D01*
X241143Y255325D01*
X238815Y257652D01*
X235965Y259298D01*
X232786Y260150D01*
X229494D01*
X226315Y259298D01*
X226140Y259197D01*
X211553Y273783D01*
X210051Y274787D01*
X208280Y275139D01*
X208280Y275139D01*
X91722D01*
X91541Y275155D01*
X91525Y275157D01*
X91051Y275630D01*
X88831Y276550D01*
D02*
G37*
G36*
X72481Y175040D02*
X69519D01*
X66613Y174462D01*
X63876Y173328D01*
X61413Y171682D01*
X59318Y169587D01*
X57672Y167124D01*
X57187Y165955D01*
X55813D01*
X55328Y167124D01*
X53682Y169587D01*
X51587Y171682D01*
X49124Y173328D01*
X46387Y174462D01*
X43481Y175040D01*
X40519D01*
X37613Y174462D01*
X34876Y173328D01*
X32413Y171682D01*
X30318Y169587D01*
X28672Y167124D01*
X27538Y164387D01*
X26960Y161481D01*
Y158519D01*
X27538Y155613D01*
X28672Y152876D01*
X30318Y150413D01*
X32413Y148318D01*
X34876Y146672D01*
X37613Y145538D01*
X40519Y144960D01*
X43481D01*
X46387Y145538D01*
X49124Y146672D01*
X51587Y148318D01*
X53682Y150413D01*
X55328Y152876D01*
X55813Y154045D01*
X57187D01*
X57672Y152876D01*
X59318Y150413D01*
X61413Y148318D01*
X63876Y146672D01*
X66613Y145538D01*
X69519Y144960D01*
X72481D01*
X75387Y145538D01*
X78124Y146672D01*
X80587Y148318D01*
X82682Y150413D01*
X84328Y152876D01*
X85462Y155613D01*
X86040Y158519D01*
Y161481D01*
X85462Y164387D01*
X84328Y167124D01*
X82682Y169587D01*
X80587Y171682D01*
X78124Y173328D01*
X75387Y174462D01*
X72481Y175040D01*
D02*
G37*
G36*
X448043Y54790D02*
X445137D01*
X442288Y54223D01*
X439603Y53112D01*
X437187Y51497D01*
X435133Y49443D01*
X433519Y47027D01*
X432407Y44343D01*
X431840Y41493D01*
Y38588D01*
X432407Y35738D01*
X433519Y33054D01*
X435133Y30638D01*
X437187Y28583D01*
X439603Y26969D01*
X442288Y25857D01*
X445137Y25290D01*
X448043D01*
X450892Y25857D01*
X453577Y26969D01*
X455993Y28583D01*
X458047Y30638D01*
X459661Y33054D01*
X460773Y35738D01*
X461340Y38588D01*
Y41493D01*
X460773Y44343D01*
X459661Y47027D01*
X458047Y49443D01*
X455993Y51497D01*
X453577Y53112D01*
X450892Y54223D01*
X448043Y54790D01*
D02*
G37*
G36*
X397243D02*
X394337D01*
X391488Y54223D01*
X388803Y53112D01*
X386387Y51497D01*
X384333Y49443D01*
X382719Y47027D01*
X381607Y44343D01*
X381040Y41493D01*
Y38588D01*
X381607Y35738D01*
X382719Y33054D01*
X384333Y30638D01*
X386387Y28583D01*
X388803Y26969D01*
X391488Y25857D01*
X394337Y25290D01*
X397243D01*
X400092Y25857D01*
X402777Y26969D01*
X405193Y28583D01*
X407247Y30638D01*
X408861Y33054D01*
X409973Y35738D01*
X410540Y38588D01*
Y41493D01*
X409973Y44343D01*
X408861Y47027D01*
X407247Y49443D01*
X405193Y51497D01*
X402777Y53112D01*
X400092Y54223D01*
X397243Y54790D01*
D02*
G37*
G36*
X346443D02*
X343537D01*
X340688Y54223D01*
X338003Y53112D01*
X335587Y51497D01*
X333533Y49443D01*
X331919Y47027D01*
X330807Y44343D01*
X330240Y41493D01*
Y38588D01*
X330807Y35738D01*
X331919Y33054D01*
X333533Y30638D01*
X335587Y28583D01*
X338003Y26969D01*
X340688Y25857D01*
X343537Y25290D01*
X346443D01*
X349292Y25857D01*
X351977Y26969D01*
X354393Y28583D01*
X356447Y30638D01*
X358061Y33054D01*
X359173Y35738D01*
X359740Y38588D01*
Y41493D01*
X359173Y44343D01*
X358061Y47027D01*
X356447Y49443D01*
X354393Y51497D01*
X351977Y53112D01*
X349292Y54223D01*
X346443Y54790D01*
D02*
G37*
G36*
X295643D02*
X292737D01*
X289888Y54223D01*
X287203Y53112D01*
X284787Y51497D01*
X282733Y49443D01*
X281119Y47027D01*
X280007Y44343D01*
X279440Y41493D01*
Y38588D01*
X280007Y35738D01*
X281119Y33054D01*
X282733Y30638D01*
X284787Y28583D01*
X287203Y26969D01*
X289888Y25857D01*
X292737Y25290D01*
X295643D01*
X298492Y25857D01*
X301177Y26969D01*
X303593Y28583D01*
X305647Y30638D01*
X307261Y33054D01*
X308373Y35738D01*
X308940Y38588D01*
Y41493D01*
X308373Y44343D01*
X307261Y47027D01*
X305647Y49443D01*
X303593Y51497D01*
X301177Y53112D01*
X298492Y54223D01*
X295643Y54790D01*
D02*
G37*
G36*
X194043D02*
X191137D01*
X188288Y54223D01*
X185603Y53112D01*
X183187Y51497D01*
X181133Y49443D01*
X179519Y47027D01*
X178407Y44343D01*
X177840Y41493D01*
Y38588D01*
X178407Y35738D01*
X179519Y33054D01*
X181133Y30638D01*
X183187Y28583D01*
X185603Y26969D01*
X188288Y25857D01*
X191137Y25290D01*
X194043D01*
X196892Y25857D01*
X199577Y26969D01*
X201993Y28583D01*
X204047Y30638D01*
X205661Y33054D01*
X206773Y35738D01*
X207340Y38588D01*
Y41493D01*
X206773Y44343D01*
X205661Y47027D01*
X204047Y49443D01*
X201993Y51497D01*
X199577Y53112D01*
X196892Y54223D01*
X194043Y54790D01*
D02*
G37*
G36*
X143243D02*
X140337D01*
X137488Y54223D01*
X134803Y53112D01*
X132387Y51497D01*
X130333Y49443D01*
X128719Y47027D01*
X127607Y44343D01*
X127040Y41493D01*
Y38588D01*
X127607Y35738D01*
X128719Y33054D01*
X130333Y30638D01*
X132387Y28583D01*
X134803Y26969D01*
X137488Y25857D01*
X140337Y25290D01*
X143243D01*
X146092Y25857D01*
X148777Y26969D01*
X151193Y28583D01*
X153247Y30638D01*
X154861Y33054D01*
X155973Y35738D01*
X156540Y38588D01*
Y41493D01*
X155973Y44343D01*
X154861Y47027D01*
X153247Y49443D01*
X151193Y51497D01*
X148777Y53112D01*
X146092Y54223D01*
X143243Y54790D01*
D02*
G37*
G36*
X92443D02*
X89537D01*
X86688Y54223D01*
X84003Y53112D01*
X81587Y51497D01*
X79533Y49443D01*
X77919Y47027D01*
X76807Y44343D01*
X76240Y41493D01*
Y38588D01*
X76807Y35738D01*
X77919Y33054D01*
X79533Y30638D01*
X81587Y28583D01*
X84003Y26969D01*
X86688Y25857D01*
X89537Y25290D01*
X92443D01*
X95292Y25857D01*
X97977Y26969D01*
X100393Y28583D01*
X102447Y30638D01*
X104061Y33054D01*
X105173Y35738D01*
X105740Y38588D01*
Y41493D01*
X105173Y44343D01*
X104061Y47027D01*
X102447Y49443D01*
X100393Y51497D01*
X97977Y53112D01*
X95292Y54223D01*
X92443Y54790D01*
D02*
G37*
G36*
X41643D02*
X38737D01*
X35888Y54223D01*
X33203Y53112D01*
X30787Y51497D01*
X28733Y49443D01*
X27119Y47027D01*
X26007Y44343D01*
X25440Y41493D01*
Y38588D01*
X26007Y35738D01*
X27119Y33054D01*
X28733Y30638D01*
X30787Y28583D01*
X33203Y26969D01*
X35888Y25857D01*
X38737Y25290D01*
X41643D01*
X44492Y25857D01*
X47177Y26969D01*
X49593Y28583D01*
X51647Y30638D01*
X53261Y33054D01*
X54373Y35738D01*
X54940Y38588D01*
Y41493D01*
X54373Y44343D01*
X53261Y47027D01*
X51647Y49443D01*
X49593Y51497D01*
X47177Y53112D01*
X44492Y54223D01*
X41643Y54790D01*
D02*
G37*
%LPD*%
G36*
X506213Y769961D02*
X505410Y769661D01*
X504702Y769161D01*
X504089Y768461D01*
X503570Y767561D01*
X503145Y766461D01*
X502815Y765161D01*
X502579Y763661D01*
X502437Y761961D01*
X502390Y760061D01*
X492390D01*
X492343Y761961D01*
X492201Y763661D01*
X491965Y765161D01*
X491635Y766461D01*
X491210Y767561D01*
X490691Y768461D01*
X490077Y769161D01*
X489370Y769661D01*
X488567Y769961D01*
X487671Y770061D01*
X507109D01*
X506213Y769961D01*
D02*
G37*
G36*
X510036Y644325D02*
X512113Y642511D01*
X512733Y642049D01*
X513864Y641339D01*
X514375Y641091D01*
X514850Y640915D01*
X515288Y640810D01*
X504114Y632970D01*
X504168Y633508D01*
X504135Y634071D01*
X504015Y634659D01*
X503808Y635271D01*
X503513Y635908D01*
X503132Y636570D01*
X502663Y637257D01*
X502108Y637968D01*
X501465Y638704D01*
X500735Y639465D01*
X509271Y645072D01*
X510036Y644325D01*
D02*
G37*
G36*
X403868Y772423D02*
X403558Y771955D01*
X403284Y771413D01*
X403047Y770798D01*
X402846Y770109D01*
X402682Y769346D01*
X402554Y768510D01*
X402408Y766617D01*
X402390Y765560D01*
X392390D01*
X392372Y766617D01*
X392226Y768510D01*
X392098Y769346D01*
X391934Y770109D01*
X391733Y770798D01*
X391496Y771413D01*
X391222Y771955D01*
X390912Y772423D01*
X390565Y772817D01*
X404215D01*
X403868Y772423D01*
D02*
G37*
G36*
X402390Y646065D02*
X402653Y635052D01*
X390018Y640218D01*
X390468Y640457D01*
X390872Y640787D01*
X391228Y641208D01*
X391536Y641720D01*
X391797Y642323D01*
X392010Y643017D01*
X392177Y643801D01*
X392295Y644677D01*
X392366Y645644D01*
X392390Y646702D01*
X402390Y646065D01*
D02*
G37*
G36*
X58265Y618249D02*
X58342Y618033D01*
X58471Y617843D01*
X58651Y617677D01*
X58882Y617538D01*
X59165Y617424D01*
X59499Y617335D01*
X59884Y617271D01*
X60321Y617233D01*
X60810Y617220D01*
Y614680D01*
X60321Y614668D01*
X59884Y614630D01*
X59499Y614566D01*
X59165Y614477D01*
X58882Y614363D01*
X58651Y614223D01*
X58471Y614058D01*
X58342Y613867D01*
X58265Y613652D01*
X58239Y613410D01*
Y618490D01*
X58265Y618249D01*
D02*
G37*
G36*
X128334Y608154D02*
X128470Y608078D01*
X128637Y608010D01*
X128837Y607952D01*
X129068Y607902D01*
X129331Y607862D01*
X129953Y607808D01*
X130702Y607790D01*
Y603790D01*
X130312Y603786D01*
X129331Y603718D01*
X129068Y603677D01*
X128837Y603628D01*
X128637Y603569D01*
X128470Y603502D01*
X128334Y603425D01*
X128230Y603340D01*
Y608240D01*
X128334Y608154D01*
D02*
G37*
G36*
X22621Y607985D02*
X22025Y607425D01*
X21499Y606838D01*
X21043Y606225D01*
X20657Y605584D01*
X20341Y604917D01*
X20096Y604223D01*
X19921Y603502D01*
X19815Y602754D01*
X19780Y601980D01*
X15780D01*
X15745Y602754D01*
X15640Y603502D01*
X15465Y604223D01*
X15219Y604917D01*
X14903Y605584D01*
X14518Y606225D01*
X14062Y606838D01*
X13536Y607425D01*
X12939Y607985D01*
X12273Y608518D01*
X23287D01*
X22621Y607985D01*
D02*
G37*
G36*
X44633Y586283D02*
X44134Y586955D01*
X43618Y587556D01*
X43083Y588087D01*
X42530Y588547D01*
X41960Y588936D01*
X41371Y589254D01*
X40764Y589502D01*
X40140Y589678D01*
X39497Y589785D01*
X38836Y589820D01*
X39550Y593820D01*
X40153Y593848D01*
X40774Y593932D01*
X41413Y594073D01*
X42072Y594270D01*
X42748Y594523D01*
X43444Y594832D01*
X44157Y595197D01*
X45641Y596097D01*
X46410Y596631D01*
X44633Y586283D01*
D02*
G37*
G36*
X56793Y595183D02*
X57431Y594630D01*
X58068Y594143D01*
X58705Y593720D01*
X59342Y593363D01*
X59980Y593070D01*
X60617Y592843D01*
X61254Y592680D01*
X61891Y592583D01*
X62529Y592550D01*
Y588550D01*
X61891Y588518D01*
X61254Y588420D01*
X60617Y588258D01*
X59980Y588030D01*
X59342Y587738D01*
X58705Y587380D01*
X58068Y586958D01*
X57431Y586470D01*
X56793Y585918D01*
X56156Y585300D01*
Y595800D01*
X56793Y595183D01*
D02*
G37*
G36*
X56924Y544244D02*
X58383Y542970D01*
X59075Y542453D01*
X59741Y542015D01*
X60382Y541657D01*
X60997Y541378D01*
X61588Y541180D01*
X62152Y541060D01*
X62692Y541020D01*
Y538480D01*
X62152Y538441D01*
X61588Y538321D01*
X60997Y538122D01*
X60382Y537844D01*
X59741Y537485D01*
X59075Y537048D01*
X58383Y536530D01*
X56924Y535257D01*
X56156Y534500D01*
Y545000D01*
X56924Y544244D01*
D02*
G37*
G36*
X264743Y523952D02*
X265483Y523307D01*
X265698Y523149D01*
X265897Y523021D01*
X266079Y522921D01*
X266246Y522850D01*
X266396Y522808D01*
X266530Y522795D01*
X263065Y519330D01*
X263052Y519464D01*
X263010Y519614D01*
X262939Y519781D01*
X262839Y519963D01*
X262711Y520162D01*
X262553Y520377D01*
X262152Y520854D01*
X261635Y521397D01*
X264463Y524225D01*
X264743Y523952D01*
D02*
G37*
G36*
X74855Y527981D02*
Y512767D01*
X74696Y512646D01*
X73585Y512298D01*
X68787Y517097D01*
X67526Y517939D01*
X66040Y518235D01*
X62700D01*
X62448Y519175D01*
X60803Y522025D01*
X58475Y524353D01*
X55625Y525998D01*
X54153Y526393D01*
Y527708D01*
X55625Y528102D01*
X58475Y529748D01*
X60803Y532075D01*
X62448Y534925D01*
X62700Y535866D01*
X66971D01*
X74855Y527981D01*
D02*
G37*
G36*
X56924Y518844D02*
X58383Y517570D01*
X59075Y517053D01*
X59741Y516615D01*
X60382Y516257D01*
X60997Y515978D01*
X61588Y515779D01*
X62152Y515660D01*
X62692Y515620D01*
Y513080D01*
X62152Y513041D01*
X61588Y512921D01*
X60997Y512722D01*
X60382Y512444D01*
X59741Y512085D01*
X59075Y511647D01*
X58383Y511130D01*
X56924Y509856D01*
X56156Y509100D01*
Y519600D01*
X56924Y518844D01*
D02*
G37*
G36*
X102335Y305572D02*
X102402Y304592D01*
X102443Y304328D01*
X102492Y304097D01*
X102551Y303898D01*
X102618Y303730D01*
X102695Y303594D01*
X102780Y303490D01*
X97880D01*
X97966Y303594D01*
X98042Y303730D01*
X98110Y303898D01*
X98168Y304097D01*
X98218Y304328D01*
X98258Y304592D01*
X98312Y305214D01*
X98330Y305963D01*
X102330D01*
X102335Y305572D01*
D02*
G37*
G36*
X453868Y772423D02*
X453558Y771955D01*
X453284Y771413D01*
X453047Y770798D01*
X452846Y770109D01*
X452682Y769346D01*
X452554Y768510D01*
X452408Y766617D01*
X452390Y765560D01*
X442390D01*
X442372Y766617D01*
X442226Y768510D01*
X442098Y769346D01*
X441934Y770109D01*
X441733Y770798D01*
X441496Y771413D01*
X441222Y771955D01*
X440912Y772423D01*
X440565Y772817D01*
X454215D01*
X453868Y772423D01*
D02*
G37*
G36*
X544079Y466153D02*
X544563Y465838D01*
X545121Y465562D01*
X545753Y465323D01*
X546460Y465123D01*
X547240Y464962D01*
X548095Y464839D01*
X550028Y464708D01*
X551105Y464700D01*
X543680Y457275D01*
X543672Y458353D01*
X543541Y460285D01*
X543418Y461140D01*
X543256Y461920D01*
X543057Y462627D01*
X542818Y463259D01*
X542542Y463817D01*
X542227Y464301D01*
X541873Y464711D01*
X543669Y466507D01*
X544079Y466153D01*
D02*
G37*
G36*
X206619Y447393D02*
X206390Y447147D01*
X206186Y446893D01*
X206006Y446629D01*
X205850Y446357D01*
X205719Y446076D01*
X205612Y445785D01*
X205530Y445486D01*
X205472Y445178D01*
X205439Y444861D01*
X205430Y444535D01*
X201965Y448000D01*
X202291Y448009D01*
X202608Y448042D01*
X202916Y448100D01*
X203215Y448182D01*
X203506Y448289D01*
X203787Y448420D01*
X204059Y448576D01*
X204323Y448756D01*
X204578Y448960D01*
X204823Y449189D01*
X206619Y447393D01*
D02*
G37*
G36*
X180039Y441599D02*
X180072Y441282D01*
X180130Y440974D01*
X180212Y440675D01*
X180319Y440384D01*
X180450Y440103D01*
X180606Y439831D01*
X180786Y439567D01*
X180990Y439313D01*
X181219Y439067D01*
X179423Y437271D01*
X179177Y437500D01*
X178923Y437704D01*
X178659Y437884D01*
X178387Y438040D01*
X178106Y438171D01*
X177815Y438278D01*
X177516Y438360D01*
X177208Y438418D01*
X176891Y438451D01*
X176565Y438460D01*
X180030Y441925D01*
X180039Y441599D01*
D02*
G37*
G36*
X279596Y439416D02*
X279844Y439215D01*
X280103Y439038D01*
X280373Y438885D01*
X280653Y438755D01*
X280945Y438649D01*
X281248Y438566D01*
X281561Y438507D01*
X281886Y438472D01*
X282222Y438460D01*
Y435920D01*
X281886Y435908D01*
X281561Y435873D01*
X281248Y435814D01*
X280945Y435731D01*
X280653Y435625D01*
X280373Y435495D01*
X280103Y435342D01*
X279844Y435165D01*
X279596Y434964D01*
X279359Y434740D01*
Y439640D01*
X279596Y439416D01*
D02*
G37*
G36*
X544079Y440753D02*
X544563Y440438D01*
X545121Y440162D01*
X545753Y439923D01*
X546460Y439724D01*
X547240Y439562D01*
X548095Y439439D01*
X550028Y439308D01*
X551105Y439300D01*
X543680Y431875D01*
X543672Y432952D01*
X543541Y434885D01*
X543418Y435740D01*
X543256Y436520D01*
X543057Y437227D01*
X542818Y437859D01*
X542542Y438417D01*
X542227Y438901D01*
X541873Y439311D01*
X543669Y441107D01*
X544079Y440753D01*
D02*
G37*
G36*
X490112Y433720D02*
X490367Y433516D01*
X490631Y433336D01*
X490903Y433180D01*
X491184Y433049D01*
X491475Y432942D01*
X491774Y432860D01*
X492082Y432802D01*
X492399Y432769D01*
X492725Y432760D01*
X489260Y429295D01*
X489251Y429621D01*
X489218Y429938D01*
X489160Y430246D01*
X489078Y430545D01*
X488971Y430836D01*
X488840Y431117D01*
X488684Y431389D01*
X488504Y431653D01*
X488300Y431908D01*
X488071Y432153D01*
X489867Y433949D01*
X490112Y433720D01*
D02*
G37*
G36*
X167339Y431439D02*
X167372Y431122D01*
X167430Y430814D01*
X167512Y430515D01*
X167619Y430224D01*
X167750Y429943D01*
X167906Y429671D01*
X168086Y429407D01*
X168290Y429152D01*
X168519Y428907D01*
X166723Y427111D01*
X166478Y427340D01*
X166223Y427544D01*
X165959Y427724D01*
X165687Y427880D01*
X165406Y428011D01*
X165115Y428118D01*
X164816Y428200D01*
X164508Y428258D01*
X164191Y428291D01*
X163865Y428300D01*
X167330Y431765D01*
X167339Y431439D01*
D02*
G37*
G36*
X271976Y429876D02*
X272224Y429675D01*
X272483Y429498D01*
X272753Y429345D01*
X273033Y429215D01*
X273325Y429109D01*
X273628Y429026D01*
X273941Y428967D01*
X274266Y428932D01*
X274601Y428920D01*
Y426380D01*
X274266Y426368D01*
X273941Y426333D01*
X273628Y426274D01*
X273325Y426191D01*
X273033Y426085D01*
X272753Y425955D01*
X272483Y425802D01*
X272224Y425625D01*
X271976Y425424D01*
X271740Y425200D01*
Y430100D01*
X271976Y429876D01*
D02*
G37*
G36*
X496269Y428899D02*
X496302Y428582D01*
X496360Y428274D01*
X496442Y427975D01*
X496549Y427684D01*
X496680Y427403D01*
X496836Y427131D01*
X497016Y426867D01*
X497220Y426613D01*
X497449Y426367D01*
X495653Y424571D01*
X495407Y424800D01*
X495153Y425004D01*
X494889Y425184D01*
X494617Y425340D01*
X494336Y425471D01*
X494045Y425578D01*
X493746Y425660D01*
X493438Y425718D01*
X493121Y425751D01*
X492795Y425760D01*
X496260Y429225D01*
X496269Y428899D01*
D02*
G37*
G36*
X540019Y437468D02*
X539532Y436625D01*
X538680Y433446D01*
Y430154D01*
X539532Y426975D01*
X541177Y424125D01*
X543505Y421797D01*
X546355Y420152D01*
X547827Y419757D01*
Y418443D01*
X546355Y418048D01*
X545512Y417561D01*
X503312Y459762D01*
X503798Y460935D01*
X516551D01*
X540019Y437468D01*
D02*
G37*
G36*
X544079Y415353D02*
X544563Y415038D01*
X545121Y414762D01*
X545753Y414523D01*
X546460Y414324D01*
X547240Y414162D01*
X548095Y414039D01*
X550028Y413908D01*
X551105Y413900D01*
X543680Y406475D01*
X543672Y407552D01*
X543541Y409485D01*
X543418Y410340D01*
X543256Y411120D01*
X543057Y411827D01*
X542818Y412459D01*
X542542Y413017D01*
X542227Y413501D01*
X541873Y413911D01*
X543669Y415707D01*
X544079Y415353D01*
D02*
G37*
G36*
X540019Y412068D02*
X539532Y411225D01*
X538680Y408046D01*
Y404754D01*
X539532Y401575D01*
X541177Y398725D01*
X543505Y396398D01*
X546355Y394752D01*
X547827Y394357D01*
Y393043D01*
X546355Y392648D01*
X545512Y392161D01*
X525080Y412594D01*
Y419875D01*
X524784Y421362D01*
X523942Y422622D01*
X491882Y454682D01*
X492368Y455855D01*
X496231D01*
X540019Y412068D01*
D02*
G37*
G36*
X485560Y414566D02*
Y412819D01*
X486479Y410599D01*
X488179Y408899D01*
X490399Y407980D01*
X492146D01*
X500305Y399821D01*
Y384418D01*
X499132Y383932D01*
X497530Y385534D01*
Y387281D01*
X496610Y389501D01*
X494911Y391200D01*
X492691Y392120D01*
X490944D01*
X451028Y432035D01*
X451554Y433305D01*
X466821D01*
X485560Y414566D01*
D02*
G37*
G36*
X544079Y389953D02*
X544563Y389638D01*
X545121Y389362D01*
X545753Y389123D01*
X546460Y388923D01*
X547240Y388762D01*
X548095Y388639D01*
X550028Y388508D01*
X551105Y388500D01*
X543680Y381075D01*
X543672Y382152D01*
X543541Y384085D01*
X543418Y384940D01*
X543256Y385720D01*
X543057Y386427D01*
X542818Y387059D01*
X542542Y387617D01*
X542227Y388101D01*
X541873Y388511D01*
X543669Y390307D01*
X544079Y389953D01*
D02*
G37*
G36*
X540019Y386668D02*
X539532Y385825D01*
X538680Y382646D01*
Y379354D01*
X539532Y376175D01*
X541177Y373325D01*
X543505Y370998D01*
X546355Y369352D01*
X547827Y368957D01*
Y367643D01*
X546355Y367248D01*
X545512Y366762D01*
X519505Y392769D01*
Y405522D01*
X520678Y406008D01*
X540019Y386668D01*
D02*
G37*
G36*
X485450Y386626D02*
Y384879D01*
X486370Y382659D01*
X488069Y380960D01*
X490289Y380040D01*
X492036D01*
X495025Y377051D01*
Y364633D01*
X493755Y363785D01*
X492801Y364180D01*
X491054D01*
X434657Y420577D01*
X433396Y421419D01*
X431910Y421715D01*
X281615D01*
X280840Y422670D01*
X281308Y423765D01*
X357953D01*
X359440Y424061D01*
X360700Y424903D01*
X361792Y425995D01*
X446081D01*
X485450Y386626D01*
D02*
G37*
G36*
X544079Y364553D02*
X544563Y364238D01*
X545121Y363962D01*
X545753Y363723D01*
X546460Y363523D01*
X547240Y363362D01*
X548095Y363239D01*
X550028Y363108D01*
X551105Y363100D01*
X543680Y355675D01*
X543672Y356753D01*
X543541Y358685D01*
X543418Y359540D01*
X543256Y360320D01*
X543057Y361027D01*
X542818Y361659D01*
X542542Y362217D01*
X542227Y362701D01*
X541873Y363111D01*
X543669Y364907D01*
X544079Y364553D01*
D02*
G37*
G36*
X540019Y361268D02*
X539532Y360425D01*
X538680Y357246D01*
Y353954D01*
X539532Y350775D01*
X541177Y347925D01*
X543505Y345597D01*
X546355Y343952D01*
X547827Y343557D01*
Y342243D01*
X546355Y341848D01*
X545512Y341362D01*
X513155Y373719D01*
Y386472D01*
X514328Y386958D01*
X540019Y361268D01*
D02*
G37*
G36*
X544079Y339153D02*
X544563Y338838D01*
X545121Y338562D01*
X545753Y338323D01*
X546460Y338124D01*
X547240Y337962D01*
X548095Y337839D01*
X550028Y337708D01*
X551105Y337700D01*
X543680Y330275D01*
X543672Y331353D01*
X543541Y333285D01*
X543418Y334140D01*
X543256Y334920D01*
X543057Y335627D01*
X542818Y336259D01*
X542542Y336817D01*
X542227Y337301D01*
X541873Y337711D01*
X543669Y339507D01*
X544079Y339153D01*
D02*
G37*
G36*
X540019Y335868D02*
X539532Y335025D01*
X538680Y331846D01*
Y328554D01*
X539532Y325375D01*
X541177Y322525D01*
X543505Y320197D01*
X546355Y318552D01*
X547827Y318157D01*
Y316843D01*
X546355Y316448D01*
X545512Y315961D01*
X508075Y353399D01*
Y366152D01*
X509248Y366638D01*
X540019Y335868D01*
D02*
G37*
G36*
X544079Y313753D02*
X544563Y313438D01*
X545121Y313162D01*
X545753Y312923D01*
X546460Y312724D01*
X547240Y312562D01*
X548095Y312439D01*
X550028Y312308D01*
X551105Y312300D01*
X543680Y304875D01*
X543672Y305952D01*
X543541Y307885D01*
X543418Y308740D01*
X543256Y309520D01*
X543057Y310227D01*
X542818Y310859D01*
X542542Y311417D01*
X542227Y311901D01*
X541873Y312311D01*
X543669Y314107D01*
X544079Y313753D01*
D02*
G37*
G36*
X540019Y310468D02*
X539532Y309625D01*
X538680Y306446D01*
Y303154D01*
X539532Y299975D01*
X541177Y297125D01*
X543505Y294797D01*
X546355Y293152D01*
X547827Y292757D01*
Y291443D01*
X546355Y291048D01*
X545512Y290562D01*
X502795Y333279D01*
Y346032D01*
X503968Y346518D01*
X540019Y310468D01*
D02*
G37*
G36*
X544079Y288353D02*
X544563Y288038D01*
X545121Y287762D01*
X545753Y287523D01*
X546460Y287323D01*
X547240Y287162D01*
X548095Y287039D01*
X550028Y286908D01*
X551105Y286900D01*
X543680Y279475D01*
X543672Y280553D01*
X543541Y282485D01*
X543418Y283340D01*
X543256Y284120D01*
X543057Y284827D01*
X542818Y285459D01*
X542542Y286017D01*
X542227Y286501D01*
X541873Y286911D01*
X543669Y288707D01*
X544079Y288353D01*
D02*
G37*
G36*
X540019Y285068D02*
X539532Y284225D01*
X538680Y281046D01*
Y277754D01*
X539532Y274575D01*
X541177Y271725D01*
X543505Y269398D01*
X546355Y267752D01*
X547827Y267357D01*
Y266043D01*
X546355Y265648D01*
X545512Y265161D01*
X495485Y315189D01*
Y327806D01*
X496755Y328332D01*
X540019Y285068D01*
D02*
G37*
G36*
X544079Y262953D02*
X544563Y262638D01*
X545121Y262362D01*
X545753Y262123D01*
X546460Y261924D01*
X547240Y261762D01*
X548095Y261639D01*
X550028Y261508D01*
X551105Y261500D01*
X543680Y254075D01*
X543672Y255152D01*
X543541Y257085D01*
X543418Y257940D01*
X543256Y258720D01*
X543057Y259427D01*
X542818Y260059D01*
X542542Y260617D01*
X542227Y261101D01*
X541873Y261511D01*
X543669Y263307D01*
X544079Y262953D01*
D02*
G37*
G36*
X402062Y338861D02*
X402218Y338197D01*
X402478Y337491D01*
X402843Y336743D01*
X403311Y335953D01*
X403884Y335122D01*
X404560Y334248D01*
X406226Y332375D01*
X407215Y331376D01*
X394265D01*
X395254Y332375D01*
X396920Y334248D01*
X397596Y335122D01*
X398169Y335953D01*
X398637Y336743D01*
X399002Y337491D01*
X399262Y338197D01*
X399418Y338861D01*
X399470Y339482D01*
X402010D01*
X402062Y338861D01*
D02*
G37*
G36*
X391711Y291218D02*
X392291Y290859D01*
X392974Y290544D01*
X393761Y290273D01*
X394650Y290046D01*
X395643Y289863D01*
X396739Y289724D01*
X399241Y289577D01*
X400648Y289570D01*
X391491Y280413D01*
X391483Y281819D01*
X391336Y284321D01*
X391197Y285417D01*
X391014Y286410D01*
X390787Y287299D01*
X390516Y288086D01*
X390201Y288769D01*
X389842Y289349D01*
X389439Y289825D01*
X391235Y291621D01*
X391711Y291218D01*
D02*
G37*
G36*
X90234Y272875D02*
X90370Y272798D01*
X90537Y272731D01*
X90737Y272672D01*
X90968Y272623D01*
X91231Y272582D01*
X91853Y272528D01*
X92602Y272510D01*
Y268510D01*
X92465Y268508D01*
X92560Y268408D01*
X89732Y265580D01*
X89452Y265853D01*
X88712Y266498D01*
X88497Y266656D01*
X88298Y266784D01*
X88116Y266884D01*
X87949Y266955D01*
X87799Y266997D01*
X87665Y267010D01*
X90129Y269475D01*
Y272960D01*
X90234Y272875D01*
D02*
G37*
G36*
X224735Y256930D02*
X225254Y256548D01*
X225820Y256212D01*
X226431Y255923D01*
X227089Y255679D01*
X227792Y255481D01*
X228541Y255329D01*
X229337Y255223D01*
X230178Y255163D01*
X231065Y255150D01*
X223640Y247725D01*
X223626Y248612D01*
X223567Y249453D01*
X223461Y250249D01*
X223309Y250998D01*
X223111Y251701D01*
X222867Y252359D01*
X222578Y252970D01*
X222242Y253536D01*
X221860Y254055D01*
X221433Y254529D01*
X224261Y257357D01*
X224735Y256930D01*
D02*
G37*
G36*
X515344Y223350D02*
X514707Y223967D01*
X514070Y224520D01*
X513433Y225007D01*
X512795Y225430D01*
X512158Y225788D01*
X511521Y226080D01*
X510883Y226308D01*
X510246Y226470D01*
X509609Y226567D01*
X508972Y226600D01*
Y230600D01*
X509609Y230632D01*
X510246Y230730D01*
X510883Y230893D01*
X511521Y231120D01*
X512158Y231413D01*
X512795Y231770D01*
X513433Y232192D01*
X514070Y232680D01*
X514707Y233232D01*
X515344Y233850D01*
Y223350D01*
D02*
G37*
G36*
X464285Y131582D02*
X464352Y130601D01*
X464393Y130338D01*
X464442Y130107D01*
X464501Y129907D01*
X464568Y129740D01*
X464645Y129604D01*
X464730Y129500D01*
X459830D01*
X459916Y129604D01*
X459992Y129740D01*
X460060Y129907D01*
X460118Y130107D01*
X460168Y130338D01*
X460208Y130601D01*
X460262Y131223D01*
X460280Y131972D01*
X464280D01*
X464285Y131582D01*
D02*
G37*
G36*
X108685D02*
X108752Y130601D01*
X108792Y130338D01*
X108842Y130107D01*
X108900Y129907D01*
X108968Y129740D01*
X109045Y129604D01*
X109130Y129500D01*
X104230D01*
X104316Y129604D01*
X104392Y129740D01*
X104459Y129907D01*
X104518Y130107D01*
X104567Y130338D01*
X104608Y130601D01*
X104662Y131223D01*
X104680Y131972D01*
X108680D01*
X108685Y131582D01*
D02*
G37*
G36*
X459781Y124550D02*
X459676Y124635D01*
X459540Y124712D01*
X459373Y124780D01*
X459173Y124838D01*
X458942Y124888D01*
X458679Y124928D01*
X458057Y124982D01*
X457308Y125000D01*
Y129000D01*
X457698Y129004D01*
X458679Y129072D01*
X458942Y129113D01*
X459173Y129162D01*
X459373Y129221D01*
X459540Y129288D01*
X459676Y129365D01*
X459781Y129450D01*
Y124550D01*
D02*
G37*
G36*
X414084Y129365D02*
X414220Y129288D01*
X414387Y129221D01*
X414587Y129162D01*
X414818Y129113D01*
X415081Y129072D01*
X415703Y129018D01*
X416452Y129000D01*
Y125000D01*
X416062Y124995D01*
X415081Y124928D01*
X414818Y124888D01*
X414587Y124838D01*
X414387Y124780D01*
X414220Y124712D01*
X414084Y124635D01*
X413979Y124550D01*
Y129450D01*
X414084Y129365D01*
D02*
G37*
G36*
X408980Y124550D02*
X408876Y124635D01*
X408740Y124712D01*
X408573Y124780D01*
X408373Y124838D01*
X408142Y124888D01*
X407879Y124928D01*
X407257Y124982D01*
X406508Y125000D01*
Y129000D01*
X406898Y129004D01*
X407879Y129072D01*
X408142Y129113D01*
X408373Y129162D01*
X408573Y129221D01*
X408740Y129288D01*
X408876Y129365D01*
X408980Y129450D01*
Y124550D01*
D02*
G37*
G36*
X363284Y129365D02*
X363420Y129288D01*
X363587Y129221D01*
X363787Y129162D01*
X364018Y129113D01*
X364281Y129072D01*
X364903Y129018D01*
X365652Y129000D01*
Y125000D01*
X365262Y124995D01*
X364281Y124928D01*
X364018Y124888D01*
X363787Y124838D01*
X363587Y124780D01*
X363420Y124712D01*
X363284Y124635D01*
X363180Y124550D01*
Y129450D01*
X363284Y129365D01*
D02*
G37*
G36*
X358181Y124550D02*
X358076Y124635D01*
X357940Y124712D01*
X357773Y124780D01*
X357573Y124838D01*
X357342Y124888D01*
X357079Y124928D01*
X356457Y124982D01*
X355708Y125000D01*
Y129000D01*
X356098Y129004D01*
X357079Y129072D01*
X357342Y129113D01*
X357573Y129162D01*
X357773Y129221D01*
X357940Y129288D01*
X358076Y129365D01*
X358181Y129450D01*
Y124550D01*
D02*
G37*
G36*
X312484Y129365D02*
X312620Y129288D01*
X312787Y129221D01*
X312987Y129162D01*
X313218Y129113D01*
X313481Y129072D01*
X314103Y129018D01*
X314852Y129000D01*
Y125000D01*
X314462Y124995D01*
X313481Y124928D01*
X313218Y124888D01*
X312987Y124838D01*
X312787Y124780D01*
X312620Y124712D01*
X312484Y124635D01*
X312379Y124550D01*
Y129450D01*
X312484Y129365D01*
D02*
G37*
G36*
X307381Y124550D02*
X307276Y124635D01*
X307140Y124712D01*
X306973Y124780D01*
X306773Y124838D01*
X306542Y124888D01*
X306279Y124928D01*
X305657Y124982D01*
X304908Y125000D01*
Y129000D01*
X305298Y129004D01*
X306279Y129072D01*
X306542Y129113D01*
X306773Y129162D01*
X306973Y129221D01*
X307140Y129288D01*
X307276Y129365D01*
X307381Y129450D01*
Y124550D01*
D02*
G37*
G36*
X210884Y129365D02*
X211020Y129288D01*
X211187Y129221D01*
X211387Y129162D01*
X211618Y129113D01*
X211881Y129072D01*
X212503Y129018D01*
X213252Y129000D01*
Y125000D01*
X212862Y124995D01*
X211881Y124928D01*
X211618Y124888D01*
X211387Y124838D01*
X211187Y124780D01*
X211020Y124712D01*
X210884Y124635D01*
X210779Y124550D01*
Y129450D01*
X210884Y129365D01*
D02*
G37*
G36*
X205781Y124550D02*
X205676Y124635D01*
X205540Y124712D01*
X205373Y124780D01*
X205173Y124838D01*
X204942Y124888D01*
X204679Y124928D01*
X204057Y124982D01*
X203308Y125000D01*
Y129000D01*
X203698Y129004D01*
X204679Y129072D01*
X204942Y129113D01*
X205173Y129162D01*
X205373Y129221D01*
X205540Y129288D01*
X205676Y129365D01*
X205781Y129450D01*
Y124550D01*
D02*
G37*
G36*
X160084Y129365D02*
X160220Y129288D01*
X160387Y129221D01*
X160587Y129162D01*
X160818Y129113D01*
X161081Y129072D01*
X161703Y129018D01*
X162452Y129000D01*
Y125000D01*
X162062Y124995D01*
X161081Y124928D01*
X160818Y124888D01*
X160587Y124838D01*
X160387Y124780D01*
X160220Y124712D01*
X160084Y124635D01*
X159979Y124550D01*
Y129450D01*
X160084Y129365D01*
D02*
G37*
G36*
X154980Y124550D02*
X154876Y124635D01*
X154740Y124712D01*
X154573Y124780D01*
X154373Y124838D01*
X154142Y124888D01*
X153879Y124928D01*
X153257Y124982D01*
X152508Y125000D01*
Y129000D01*
X152898Y129004D01*
X153879Y129072D01*
X154142Y129113D01*
X154373Y129162D01*
X154573Y129221D01*
X154740Y129288D01*
X154876Y129365D01*
X154980Y129450D01*
Y124550D01*
D02*
G37*
G36*
X109284Y129365D02*
X109420Y129288D01*
X109587Y129221D01*
X109787Y129162D01*
X110018Y129113D01*
X110281Y129072D01*
X110903Y129018D01*
X111652Y129000D01*
Y125000D01*
X111262Y124995D01*
X110281Y124928D01*
X110018Y124888D01*
X109787Y124838D01*
X109587Y124780D01*
X109420Y124712D01*
X109284Y124635D01*
X109179Y124550D01*
Y129450D01*
X109284Y129365D01*
D02*
G37*
G36*
X104180Y124550D02*
X104076Y124635D01*
X103940Y124712D01*
X103773Y124780D01*
X103573Y124838D01*
X103342Y124888D01*
X103079Y124928D01*
X102457Y124982D01*
X101708Y125000D01*
Y129000D01*
X102098Y129004D01*
X103079Y129072D01*
X103342Y129113D01*
X103573Y129162D01*
X103773Y129221D01*
X103940Y129288D01*
X104076Y129365D01*
X104180Y129450D01*
Y124550D01*
D02*
G37*
G36*
X58484Y129365D02*
X58620Y129288D01*
X58787Y129221D01*
X58987Y129162D01*
X59218Y129113D01*
X59481Y129072D01*
X60103Y129018D01*
X60852Y129000D01*
Y125000D01*
X60462Y124995D01*
X59481Y124928D01*
X59218Y124888D01*
X58987Y124838D01*
X58787Y124780D01*
X58620Y124712D01*
X58484Y124635D01*
X58380Y124550D01*
Y129450D01*
X58484Y129365D01*
D02*
G37*
D24*
X256540Y283210D02*
X270510Y297180D01*
Y341630D01*
X551180Y304800D02*
Y304800D01*
X504190Y351790D02*
Y401430D01*
Y351790D02*
X551180Y304800D01*
X509270Y372110D02*
Y412750D01*
Y372110D02*
X551180Y330200D01*
X468430Y437190D02*
X491600Y414020D01*
X504190Y401430D01*
X477520Y444500D02*
X492760Y429260D01*
X509270Y412750D01*
X491600Y313580D02*
X551180Y254000D01*
X491600Y313580D02*
Y358140D01*
X497840Y459740D02*
X551180Y406400D01*
X228600Y459740D02*
X497840D01*
X222250Y464820D02*
X518160D01*
X551180Y431800D01*
X214630Y469900D02*
X538480D01*
X551180Y457200D01*
X276854Y392854D02*
X277129Y392579D01*
X373231D01*
X276860Y417830D02*
X431910D01*
X276860Y437190D02*
X468430D01*
X231140Y454660D02*
X486410D01*
X233680Y449580D02*
X483870D01*
X269240Y427650D02*
X357953D01*
X360183Y429880D01*
X483870Y449580D02*
X515620Y417830D01*
X486410Y454660D02*
X521195Y419875D01*
X240030Y444500D02*
X477520D01*
X447690Y429880D02*
X491490Y386080D01*
X189230Y444500D02*
X214630Y469900D01*
X227330Y431800D02*
X240030Y444500D01*
X201930D02*
X222250Y464820D01*
X207010Y430530D02*
X231140Y454660D01*
X204470Y435610D02*
X228600Y459740D01*
X360183Y429880D02*
X447690D01*
X209550Y425450D02*
X233680Y449580D01*
X170180Y425450D02*
X209550D01*
X182880Y435610D02*
X204470D01*
X176530Y430530D02*
X207010D01*
X176530Y441960D02*
X182880Y435610D01*
X161290Y445770D02*
X176530Y430530D01*
X151130Y445770D02*
X161290D01*
X163830Y431800D02*
X170180Y425450D01*
X521195Y410985D02*
Y419875D01*
X515620Y391160D02*
Y417830D01*
X210820Y313690D02*
Y372110D01*
X142240Y440690D02*
X210820Y372110D01*
X137160Y438150D02*
X203200Y372110D01*
Y318770D02*
Y372110D01*
X521195Y410985D02*
X551180Y381000D01*
X515620Y391160D02*
X551180Y355600D01*
X498910Y331670D02*
X551180Y279400D01*
X498910Y331670D02*
Y378660D01*
X73660Y557530D02*
Y607060D01*
X50800Y615950D02*
X64770D01*
X73660Y607060D01*
X66040Y514350D02*
X71120Y509270D01*
X50800Y514350D02*
X66040D01*
X71120Y312420D02*
Y509270D01*
X50800Y539750D02*
X68580D01*
X78740Y328930D02*
Y529590D01*
X68580Y539750D02*
X78740Y529590D01*
X92170Y436150D02*
Y539020D01*
X73660Y557530D02*
X92170Y539020D01*
X100330Y477520D02*
Y541020D01*
X82550Y558800D02*
Y587320D01*
Y558800D02*
X100330Y541020D01*
X92170Y436150D02*
X99060Y429260D01*
X137160Y438150D02*
Y454660D01*
X149680Y467180D02*
Y492762D01*
X137160Y454660D02*
X149680Y467180D01*
X158097Y466707D02*
Y520423D01*
X142240Y450850D02*
X158097Y466707D01*
X142240Y440690D02*
Y450850D01*
X152510Y526010D02*
X158097Y520423D01*
X491490Y386080D02*
X498910Y378660D01*
X400740Y280320D02*
Y280320D01*
X382996Y298064D02*
Y382814D01*
Y298064D02*
X400740Y280320D01*
X373231Y392579D02*
X382996Y382814D01*
X389890Y405130D02*
X400740Y394280D01*
Y324770D02*
Y394280D01*
X269240Y405130D02*
X389890D01*
X491600Y358140D02*
X491600D01*
X431910Y417830D02*
X491600Y358140D01*
X201930Y304800D02*
X210820Y313690D01*
X189230Y304800D02*
X203200Y318770D01*
X82550Y587320D02*
X91329Y596099D01*
X91440D01*
X138430Y585981D02*
X147455Y595007D01*
X149117D02*
X149970Y595860D01*
X147455Y595007D02*
X149117D01*
X100330Y477520D02*
X100330Y477520D01*
X138430Y477520D02*
Y585981D01*
X93981Y561340D02*
X125730Y529590D01*
X93980Y561340D02*
X93981D01*
X125730Y477520D02*
Y529590D01*
X125730Y477520D02*
X125730Y477520D01*
D25*
X87630Y270510D02*
X208280D01*
X231612Y247178D01*
X107254Y126304D02*
X107950Y127000D01*
X107254Y127696D02*
X107950Y127000D01*
X17780Y601980D02*
X27940Y591820D01*
X17780Y601980D02*
Y615950D01*
X27940Y591820D02*
X49531D01*
X50800Y590550D01*
X106680Y127000D02*
Y251460D01*
X67310Y553720D02*
Y586740D01*
X86360Y340360D02*
Y534670D01*
X67310Y553720D02*
X86360Y534670D01*
X50800Y590550D02*
X63500D01*
X67310Y586740D01*
X462280Y127000D02*
Y184150D01*
X506730Y228600D02*
X520700D01*
X462280Y184150D02*
X506730Y228600D01*
X107950Y127000D02*
X157480D01*
X87630Y270510D02*
X106680Y251460D01*
X107254Y129695D02*
X107950Y130391D01*
X107254Y127696D02*
Y129695D01*
X125730Y605790D02*
X180070D01*
X266565Y519295D01*
X86360Y340360D02*
X100330Y326390D01*
Y300990D02*
Y326390D01*
X55880Y127000D02*
X106680D01*
X411480D02*
X462280D01*
X157480D02*
X208280D01*
X309880D01*
X360680D01*
X411480D01*
D27*
X497390Y779780D02*
D03*
X39370D02*
D03*
X497390Y40040D02*
D03*
D28*
X447390Y779780D02*
D03*
X397390D02*
D03*
X453700Y489190D02*
D03*
X393700Y509190D02*
D03*
Y631190D02*
D03*
X513700D02*
D03*
Y509190D02*
D03*
X289370Y779780D02*
D03*
X239370D02*
D03*
X189370D02*
D03*
X139370D02*
D03*
X89370D02*
D03*
X446590Y40040D02*
D03*
X395790D02*
D03*
X344990D02*
D03*
X294190D02*
D03*
X243390D02*
D03*
X192590D02*
D03*
X141790D02*
D03*
X90990D02*
D03*
X40190D02*
D03*
D29*
X400740Y280320D02*
D03*
X465740D02*
D03*
X400740Y324770D02*
D03*
X465740D02*
D03*
X17780Y615950D02*
D03*
Y550950D02*
D03*
D30*
X520700Y254000D02*
D03*
X551180Y558800D02*
D03*
X50800Y615950D02*
D03*
D31*
X520700Y228600D02*
D03*
Y203200D02*
D03*
Y177800D02*
D03*
X551180D02*
D03*
Y203200D02*
D03*
Y228600D02*
D03*
Y254000D02*
D03*
Y279400D02*
D03*
Y304800D02*
D03*
Y330200D02*
D03*
Y355600D02*
D03*
Y381000D02*
D03*
Y406400D02*
D03*
Y431800D02*
D03*
Y457200D02*
D03*
Y482600D02*
D03*
Y508000D02*
D03*
Y533400D02*
D03*
X231140Y247650D02*
D03*
X205740D02*
D03*
X180340D02*
D03*
X50800Y590550D02*
D03*
Y565150D02*
D03*
Y539750D02*
D03*
Y514350D02*
D03*
Y488950D02*
D03*
D32*
X256540Y247650D02*
D03*
D33*
X270510Y341630D02*
D03*
X256540Y283210D02*
D03*
X226060Y485140D02*
D03*
Y492760D02*
D03*
Y500380D02*
D03*
X153670Y744220D02*
D03*
X95250D02*
D03*
X276854Y392854D02*
D03*
X276860Y417830D02*
D03*
Y437190D02*
D03*
X269240Y427650D02*
D03*
X201930Y444500D02*
D03*
X189230D02*
D03*
X176530Y441960D02*
D03*
X163830Y431800D02*
D03*
X227330D02*
D03*
X492760Y429260D02*
D03*
X99060D02*
D03*
X151130Y445770D02*
D03*
X491600Y414020D02*
D03*
X491490Y386080D02*
D03*
X491600Y358140D02*
D03*
X269240Y405130D02*
D03*
X149680Y492762D02*
D03*
X125730Y605790D02*
D03*
X91440Y596099D02*
D03*
X149970Y595860D02*
D03*
X266565Y519295D02*
D03*
X100330Y477520D02*
D03*
X78740Y328930D02*
D03*
X71120Y312420D02*
D03*
X87630Y270510D02*
D03*
X106680Y127000D02*
D03*
X462280D02*
D03*
X189230Y304800D02*
D03*
X201930D02*
D03*
X93980Y561340D02*
D03*
X152510Y526010D02*
D03*
X138430Y477520D02*
D03*
X125730D02*
D03*
X138430Y401320D02*
D03*
X110490D02*
D03*
X124460D02*
D03*
X152400D02*
D03*
X110490Y415290D02*
D03*
X124460D02*
D03*
X138430D02*
D03*
X179070Y331470D02*
D03*
X110490Y344170D02*
D03*
X179070D02*
D03*
X124460D02*
D03*
Y331470D02*
D03*
X191770D02*
D03*
X152400D02*
D03*
X110490D02*
D03*
X166370D02*
D03*
X138430D02*
D03*
X191770Y344170D02*
D03*
X179070Y372110D02*
D03*
Y358140D02*
D03*
X191770D02*
D03*
X110490D02*
D03*
X138430Y387350D02*
D03*
X124460Y372110D02*
D03*
Y358140D02*
D03*
X110490Y372110D02*
D03*
Y387350D02*
D03*
X124460D02*
D03*
X152400D02*
D03*
X166370D02*
D03*
X55880Y127000D02*
D03*
X157480D02*
D03*
X208280D02*
D03*
X309880D02*
D03*
X360680D02*
D03*
X411480D02*
D03*
X100330Y300990D02*
D03*
D34*
X42000Y160000D02*
D03*
X71000D02*
D03*
X42000Y660000D02*
D03*
D35*
X393700Y633761D02*
X397390Y637451D01*
X393700Y631190D02*
Y633761D01*
X397390Y637451D02*
Y779780D01*
X497390Y649882D02*
X513700Y633572D01*
X497390Y649882D02*
Y779780D01*
X513700Y631190D02*
Y633572D01*
X447390Y498071D02*
X453700Y491761D01*
X447390Y498071D02*
Y779780D01*
X453700Y489190D02*
Y491761D01*
%TF.MD5,e8955595a50bd8a08cc7d7202286c061*%
M02*
