%TF.GenerationSoftware,Altium Limited,Altium Designer,21.4.1 (30)*%
G04 Layer_Color=65535*
%FSLAX44Y44*%
%MOMM*%
%TF.SameCoordinates,EB49FF53-C53B-41EF-AC46-A12079E47AB4*%
%TF.FilePolarity,Positive*%
%TF.FileFunction,Legend,Top*%
%TF.Part,Single*%
G01*
G75*
%TA.AperFunction,NonConductor*%
%ADD26C,0.4000*%
%ADD36C,0.2540*%
%ADD45C,0.1000*%
%ADD46C,0.2000*%
%ADD47C,0.5000*%
D26*
X0Y813650D02*
X0Y813650D01*
Y-0D02*
Y820000D01*
X570000Y820000D02*
X570000Y-0D01*
D36*
X402740Y265320D02*
X462740D01*
X402740D02*
Y295320D01*
X462740D01*
Y265320D02*
Y295320D01*
X415740Y275320D02*
Y285320D01*
Y275320D02*
X450740D01*
Y285320D01*
X415740D02*
X450740D01*
X402740Y309770D02*
X462740D01*
X402740D02*
Y339770D01*
X462740D01*
Y309770D02*
Y339770D01*
X415740Y319770D02*
Y329770D01*
Y319770D02*
X450740D01*
Y329770D01*
X415740D02*
X450740D01*
X2780Y553950D02*
Y613950D01*
X32780D01*
Y553950D02*
Y613950D01*
X2780Y553950D02*
X32780D01*
X12780Y600950D02*
X22780D01*
X12780Y565950D02*
Y600950D01*
Y565950D02*
X22780D01*
Y600950D01*
D45*
X74530Y272510D02*
G03*
X74530Y273510I0J500D01*
G01*
D02*
G03*
X74530Y272510I0J-500D01*
G01*
X453490Y358140D02*
G03*
X454490Y358140I500J0D01*
G01*
D02*
G03*
X453490Y358140I-500J0D01*
G01*
X350680Y368080D02*
G03*
X350680Y369080I0J500D01*
G01*
D02*
G03*
X350680Y368080I0J-500D01*
G01*
X453490Y441960D02*
G03*
X454490Y441960I500J0D01*
G01*
D02*
G03*
X453490Y441960I-500J0D01*
G01*
Y414020D02*
G03*
X454490Y414020I500J0D01*
G01*
D02*
G03*
X453490Y414020I-500J0D01*
G01*
Y386080D02*
G03*
X454490Y386080I500J0D01*
G01*
D02*
G03*
X453490Y386080I-500J0D01*
G01*
X372390Y739280D02*
X522390D01*
X372390D02*
Y820280D01*
X522390D01*
Y739280D02*
Y820280D01*
X218600Y509500D02*
X238600D01*
X196100Y511260D02*
Y521260D01*
X261100Y511260D02*
Y521260D01*
X199280Y104100D02*
X220280D01*
X196280Y88600D02*
X217280D01*
X297880D02*
X318880D01*
X300880Y104100D02*
X321880D01*
X145480Y88600D02*
X166480D01*
X148480Y104100D02*
X169480D01*
X94680Y88600D02*
X115680D01*
X97680Y104100D02*
X118680D01*
X450520Y88600D02*
X471520D01*
X453520Y104100D02*
X474520D01*
X399480Y88600D02*
X420480D01*
X402480Y104100D02*
X423480D01*
X348680Y88600D02*
X369680D01*
X351680Y104100D02*
X372680D01*
X46880D02*
X67880D01*
X43880Y88600D02*
X64880D01*
X14370Y739280D02*
Y820280D01*
Y739280D02*
X314370D01*
Y820280D01*
X14370D02*
X314370D01*
X261100Y657310D02*
Y667310D01*
X196100Y657310D02*
Y667310D01*
X218600Y655550D02*
X238600D01*
X14790Y-710D02*
X522790D01*
X14790D02*
Y80790D01*
X522790D01*
Y-710D02*
Y80790D01*
D46*
X531390Y779780D02*
G03*
X531390Y779780I-500J0D01*
G01*
X6370D02*
G03*
X6370Y779780I-500J0D01*
G01*
X531390Y40040D02*
G03*
X531390Y40040I-500J0D01*
G01*
X280840Y697700D02*
X333840D01*
X280840Y724700D02*
X333840D01*
X255030Y283510D02*
Y295860D01*
X248030Y283510D02*
X255030D01*
X248030Y463510D02*
X255030D01*
Y449860D02*
Y463510D01*
X30D02*
X68030D01*
X30Y283510D02*
Y463510D01*
Y283510D02*
X68030D01*
X491600Y351140D02*
Y365140D01*
X430490Y364390D02*
X434490D01*
X430490Y351890D02*
X434490D01*
X508000Y266700D02*
X533400D01*
Y165100D02*
Y266700D01*
X508000Y165100D02*
Y266700D01*
Y165100D02*
X533400D01*
X55640Y238000D02*
Y252000D01*
X538480Y165100D02*
X563880D01*
Y552450D01*
Y571500D01*
X538480D02*
X563880D01*
X538480Y165100D02*
Y571500D01*
X167640Y234950D02*
Y260350D01*
X269240D01*
X167640Y234950D02*
X269240D01*
Y260350D01*
X55880Y119350D02*
Y133350D01*
X157480Y119350D02*
Y133350D01*
X208280Y119350D02*
Y133350D01*
X309880Y119350D02*
Y133350D01*
X360680Y119350D02*
Y133350D01*
X411480Y119350D02*
Y133350D01*
X209550Y149350D02*
Y163350D01*
X360680Y351140D02*
Y365140D01*
X309880Y351140D02*
Y365140D01*
Y434960D02*
Y448960D01*
Y407020D02*
Y421020D01*
X337300Y442760D02*
X393500D01*
X343100Y415760D02*
X393500D01*
X346180Y392580D02*
X354680D01*
X346180Y382080D02*
Y392580D01*
X366680D02*
X375180D01*
Y382080D02*
Y392580D01*
X373700Y683101D02*
X533700Y683390D01*
Y462700D02*
Y683390D01*
X373700Y462700D02*
X533700D01*
X373700D02*
Y683101D01*
X311150Y149350D02*
Y163350D01*
X158750Y149350D02*
Y163350D01*
X107950Y183000D02*
Y197000D01*
X106680Y119350D02*
Y133350D01*
X463790Y149350D02*
Y163350D01*
X462520Y119350D02*
Y133350D01*
X412750Y149350D02*
Y163350D01*
X361950Y149350D02*
Y163350D01*
X430490Y448210D02*
X434490D01*
X430490Y435710D02*
X434490D01*
X430490Y420270D02*
X434490D01*
X430490Y407770D02*
X434490D01*
X430490Y392330D02*
X434490D01*
X430490Y379830D02*
X434490D01*
X491600Y434960D02*
Y448960D01*
X491490Y379080D02*
Y393080D01*
X491600Y407020D02*
Y421020D01*
X360680Y286020D02*
Y300020D01*
Y317770D02*
Y331770D01*
X309880Y286020D02*
Y300020D01*
Y317770D02*
Y331770D01*
X55640Y183000D02*
Y197000D01*
X303540Y471190D02*
X353040D01*
X274040Y537190D02*
X353040D01*
X371030Y714505D02*
Y728505D01*
Y691645D02*
Y705645D01*
X303540Y544850D02*
X353040D01*
X274040Y610850D02*
X353040D01*
X303540Y619780D02*
X353040D01*
X274040Y685780D02*
X353040D01*
X208160Y602330D02*
Y616330D01*
X252730Y602600D02*
Y616600D01*
X39370Y689200D02*
Y703200D01*
X55640Y213000D02*
Y227000D01*
X130410Y572760D02*
Y588010D01*
X131710Y591510D02*
X180710D01*
Y623510D01*
X131710D02*
X180710D01*
X131710Y591510D02*
Y623510D01*
X73290Y591300D02*
Y623300D01*
X122290D01*
Y591300D02*
Y623300D01*
X73290Y591300D02*
X122290D01*
X71990Y572550D02*
Y587800D01*
X152640Y545900D02*
Y559900D01*
Y492560D02*
Y506560D01*
X153670Y689410D02*
Y703410D01*
X152770Y519230D02*
Y533230D01*
X153670Y660200D02*
Y674200D01*
X153910Y717350D02*
Y731350D01*
X94220Y545690D02*
Y559690D01*
Y492350D02*
Y506350D01*
X94350Y519020D02*
Y533020D01*
X95250Y659990D02*
Y673990D01*
X95490Y717140D02*
Y731140D01*
X95250Y689200D02*
Y703200D01*
X38100Y476250D02*
Y628650D01*
X63500Y476250D02*
Y628650D01*
X38100D02*
X63500D01*
X38100Y476250D02*
X63500D01*
D47*
X455670Y444760D02*
G03*
X455670Y444760I-1850J0D01*
G01*
%TF.MD5,6f0b95875e16c7ea9bff4fdd876362a0*%
M02*
