%TF.GenerationSoftware,Altium Limited,Altium Designer,21.4.1 (30)*%
G04 Layer_Color=16711935*
%FSLAX44Y44*%
%MOMM*%
%TF.SameCoordinates,EB49FF53-C53B-41EF-AC46-A12079E47AB4*%
%TF.FilePolarity,Negative*%
%TF.FileFunction,Soldermask,Bot*%
%TF.Part,Single*%
G01*
G75*
%TA.AperFunction,ComponentPad*%
%ADD37R,2.1532X2.1532*%
%ADD38C,2.1532*%
%ADD39C,2.0532*%
%ADD40R,1.7032X1.7032*%
%ADD41C,1.7032*%
%ADD42R,1.7032X1.7032*%
%TA.AperFunction,ViaPad*%
%ADD43C,0.9032*%
%ADD44C,2.7032*%
D37*
X497390Y779780D02*
D03*
X39370D02*
D03*
X497390Y40040D02*
D03*
D38*
X447390Y779780D02*
D03*
X397390D02*
D03*
X453700Y489190D02*
D03*
X393700Y509190D02*
D03*
Y631190D02*
D03*
X513700D02*
D03*
Y509190D02*
D03*
X289370Y779780D02*
D03*
X239370D02*
D03*
X189370D02*
D03*
X139370D02*
D03*
X89370D02*
D03*
X446590Y40040D02*
D03*
X395790D02*
D03*
X344990D02*
D03*
X294190D02*
D03*
X243390D02*
D03*
X192590D02*
D03*
X141790D02*
D03*
X90990D02*
D03*
X40190D02*
D03*
D39*
X400740Y280320D02*
D03*
X465740D02*
D03*
X400740Y324770D02*
D03*
X465740D02*
D03*
X17780Y615950D02*
D03*
Y550950D02*
D03*
D40*
X520700Y254000D02*
D03*
X551180Y558800D02*
D03*
X50800Y615950D02*
D03*
D41*
X520700Y228600D02*
D03*
Y203200D02*
D03*
Y177800D02*
D03*
X551180D02*
D03*
Y203200D02*
D03*
Y228600D02*
D03*
Y254000D02*
D03*
Y279400D02*
D03*
Y304800D02*
D03*
Y330200D02*
D03*
Y355600D02*
D03*
Y381000D02*
D03*
Y406400D02*
D03*
Y431800D02*
D03*
Y457200D02*
D03*
Y482600D02*
D03*
Y508000D02*
D03*
Y533400D02*
D03*
X231140Y247650D02*
D03*
X205740D02*
D03*
X180340D02*
D03*
X50800Y590550D02*
D03*
Y565150D02*
D03*
Y539750D02*
D03*
Y514350D02*
D03*
Y488950D02*
D03*
D42*
X256540Y247650D02*
D03*
D43*
X270510Y341630D02*
D03*
X256540Y283210D02*
D03*
X226060Y485140D02*
D03*
Y492760D02*
D03*
Y500380D02*
D03*
X153670Y744220D02*
D03*
X95250D02*
D03*
X276854Y392854D02*
D03*
X276860Y417830D02*
D03*
Y437190D02*
D03*
X269240Y427650D02*
D03*
X201930Y444500D02*
D03*
X189230D02*
D03*
X176530Y441960D02*
D03*
X163830Y431800D02*
D03*
X227330D02*
D03*
X492760Y429260D02*
D03*
X99060D02*
D03*
X151130Y445770D02*
D03*
X491600Y414020D02*
D03*
X491490Y386080D02*
D03*
X491600Y358140D02*
D03*
X269240Y405130D02*
D03*
X149680Y492762D02*
D03*
X125730Y605790D02*
D03*
X91440Y596099D02*
D03*
X149970Y595860D02*
D03*
X266565Y519295D02*
D03*
X100330Y477520D02*
D03*
X78740Y328930D02*
D03*
X71120Y312420D02*
D03*
X87630Y270510D02*
D03*
X106680Y127000D02*
D03*
X462280D02*
D03*
X189230Y304800D02*
D03*
X201930D02*
D03*
X93980Y561340D02*
D03*
X152510Y526010D02*
D03*
X138430Y477520D02*
D03*
X125730D02*
D03*
X138430Y401320D02*
D03*
X110490D02*
D03*
X124460D02*
D03*
X152400D02*
D03*
X110490Y415290D02*
D03*
X124460D02*
D03*
X138430D02*
D03*
X179070Y331470D02*
D03*
X110490Y344170D02*
D03*
X179070D02*
D03*
X124460D02*
D03*
Y331470D02*
D03*
X191770D02*
D03*
X152400D02*
D03*
X110490D02*
D03*
X166370D02*
D03*
X138430D02*
D03*
X191770Y344170D02*
D03*
X179070Y372110D02*
D03*
Y358140D02*
D03*
X191770D02*
D03*
X110490D02*
D03*
X138430Y387350D02*
D03*
X124460Y372110D02*
D03*
Y358140D02*
D03*
X110490Y372110D02*
D03*
Y387350D02*
D03*
X124460D02*
D03*
X152400D02*
D03*
X166370D02*
D03*
X55880Y127000D02*
D03*
X157480D02*
D03*
X208280D02*
D03*
X309880D02*
D03*
X360680D02*
D03*
X411480D02*
D03*
X100330Y300990D02*
D03*
D44*
X42000Y160000D02*
D03*
X71000D02*
D03*
X42000Y660000D02*
D03*
%TF.MD5,c8817f768343abf6538d900b0752a72c*%
M02*
