%TF.GenerationSoftware,Altium Limited,Altium Designer,21.4.1 (30)*%
G04 Layer_Color=2752767*
%FSLAX44Y44*%
%MOMM*%
%TF.SameCoordinates,EB49FF53-C53B-41EF-AC46-A12079E47AB4*%
%TF.FilePolarity,Positive*%
%TF.FileFunction,Drawing*%
%TF.Part,Single*%
G01*
G75*
%TA.AperFunction,NonConductor*%
%ADD73C,0.1270*%
%ADD74C,0.1693*%
D73*
X492310Y774700D02*
Y784860D01*
X502470D01*
Y774700D01*
X492310D01*
X442310D02*
Y784860D01*
X452470D01*
Y774700D01*
X442310D01*
X392310D02*
Y784860D01*
X402470D01*
Y774700D01*
X392310D01*
X520700Y248920D02*
X515620Y259080D01*
X525780D01*
X520700Y248920D01*
Y223520D02*
X515620Y233680D01*
X525780D01*
X520700Y223520D01*
Y198120D02*
X515620Y208280D01*
X525780D01*
X520700Y198120D01*
Y172720D02*
X515620Y182880D01*
X525780D01*
X520700Y172720D01*
X551180D02*
X546100Y182880D01*
X556260D01*
X551180Y172720D01*
Y198120D02*
X546100Y208280D01*
X556260D01*
X551180Y198120D01*
Y223520D02*
X546100Y233680D01*
X556260D01*
X551180Y223520D01*
Y248920D02*
X546100Y259080D01*
X556260D01*
X551180Y248920D01*
Y274320D02*
X546100Y284480D01*
X556260D01*
X551180Y274320D01*
Y299720D02*
X546100Y309880D01*
X556260D01*
X551180Y299720D01*
Y325120D02*
X546100Y335280D01*
X556260D01*
X551180Y325120D01*
Y350520D02*
X546100Y360680D01*
X556260D01*
X551180Y350520D01*
Y375920D02*
X546100Y386080D01*
X556260D01*
X551180Y375920D01*
Y401320D02*
X546100Y411480D01*
X556260D01*
X551180Y401320D01*
Y426720D02*
X546100Y436880D01*
X556260D01*
X551180Y426720D01*
Y452120D02*
X546100Y462280D01*
X556260D01*
X551180Y452120D01*
Y477520D02*
X546100Y487680D01*
X556260D01*
X551180Y477520D01*
Y502920D02*
X546100Y513080D01*
X556260D01*
X551180Y502920D01*
Y528320D02*
X546100Y538480D01*
X556260D01*
X551180Y528320D01*
Y553720D02*
X546100Y563880D01*
X556260D01*
X551180Y553720D01*
X256540Y242570D02*
X251460Y252730D01*
X261620D01*
X256540Y242570D01*
X231140D02*
X226060Y252730D01*
X236220D01*
X231140Y242570D01*
X205740D02*
X200660Y252730D01*
X210820D01*
X205740Y242570D01*
X180340D02*
X175260Y252730D01*
X185420D01*
X180340Y242570D01*
X448620Y484110D02*
Y494270D01*
X458780D01*
Y484110D01*
X448620D01*
X388620Y504110D02*
Y514270D01*
X398780D01*
Y504110D01*
X388620D01*
Y626110D02*
Y636270D01*
X398780D01*
Y626110D01*
X388620D01*
X508620D02*
Y636270D01*
X518780D01*
Y626110D01*
X508620D01*
Y504110D02*
Y514270D01*
X518780D01*
Y504110D01*
X508620D01*
X284290Y774700D02*
Y784860D01*
X294450D01*
Y774700D01*
X284290D01*
X234290D02*
Y784860D01*
X244450D01*
Y774700D01*
X234290D01*
X184290D02*
Y784860D01*
X194450D01*
Y774700D01*
X184290D01*
X134290D02*
Y784860D01*
X144450D01*
Y774700D01*
X134290D01*
X84290D02*
Y784860D01*
X94450D01*
Y774700D01*
X84290D01*
X34290D02*
Y784860D01*
X44450D01*
Y774700D01*
X34290D01*
X492310Y34960D02*
Y45120D01*
X502470D01*
Y34960D01*
X492310D01*
X441510D02*
Y45120D01*
X451670D01*
Y34960D01*
X441510D01*
X390710D02*
Y45120D01*
X400870D01*
Y34960D01*
X390710D01*
X339910D02*
Y45120D01*
X350070D01*
Y34960D01*
X339910D01*
X289110D02*
Y45120D01*
X299270D01*
Y34960D01*
X289110D01*
X238310D02*
Y45120D01*
X248470D01*
Y34960D01*
X238310D01*
X187510D02*
Y45120D01*
X197670D01*
Y34960D01*
X187510D01*
X136710D02*
Y45120D01*
X146870D01*
Y34960D01*
X136710D01*
X85910D02*
Y45120D01*
X96070D01*
Y34960D01*
X85910D01*
X35110D02*
Y45120D01*
X45270D01*
Y34960D01*
X35110D01*
X50800Y610870D02*
X45720Y621030D01*
X55880D01*
X50800Y610870D01*
Y585470D02*
X45720Y595630D01*
X55880D01*
X50800Y585470D01*
Y560070D02*
X45720Y570230D01*
X55880D01*
X50800Y560070D01*
Y534670D02*
X45720Y544830D01*
X55880D01*
X50800Y534670D01*
Y509270D02*
X45720Y519430D01*
X55880D01*
X50800Y509270D01*
Y483870D02*
X45720Y494030D01*
X55880D01*
X50800Y483870D01*
X270510Y336550D02*
X273050Y339090D01*
X275590D01*
X273050Y341630D01*
X275590Y344170D01*
X273050D01*
X270510Y346710D01*
X267970Y344170D01*
X265430D01*
X267970Y341630D01*
X265430Y339090D01*
X267970D01*
X270510Y336550D01*
X256540Y278130D02*
X259080Y280670D01*
X261620D01*
X259080Y283210D01*
X261620Y285750D01*
X259080D01*
X256540Y288290D01*
X254000Y285750D01*
X251460D01*
X254000Y283210D01*
X251460Y280670D01*
X254000D01*
X256540Y278130D01*
X36920Y154920D02*
X39460Y160000D01*
X36920Y165080D01*
X42000Y162540D01*
X47080Y165080D01*
X44540Y160000D01*
X47080Y154920D01*
X42000Y157460D01*
X36920Y154920D01*
X65920D02*
X68460Y160000D01*
X65920Y165080D01*
X71000Y162540D01*
X76080Y165080D01*
X73540Y160000D01*
X76080Y154920D01*
X71000Y157460D01*
X65920Y154920D01*
X36920Y654920D02*
X39460Y660000D01*
X36920Y665080D01*
X42000Y662540D01*
X47080Y665080D01*
X44540Y660000D01*
X47080Y654920D01*
X42000Y657460D01*
X36920Y654920D01*
X226060Y480060D02*
X228600Y482600D01*
X231140D01*
X228600Y485140D01*
X231140Y487680D01*
X228600D01*
X226060Y490220D01*
X223520Y487680D01*
X220980D01*
X223520Y485140D01*
X220980Y482600D01*
X223520D01*
X226060Y480060D01*
Y487680D02*
X228600Y490220D01*
X231140D01*
X228600Y492760D01*
X231140Y495300D01*
X228600D01*
X226060Y497840D01*
X223520Y495300D01*
X220980D01*
X223520Y492760D01*
X220980Y490220D01*
X223520D01*
X226060Y487680D01*
Y495300D02*
X228600Y497840D01*
X231140D01*
X228600Y500380D01*
X231140Y502920D01*
X228600D01*
X226060Y505460D01*
X223520Y502920D01*
X220980D01*
X223520Y500380D01*
X220980Y497840D01*
X223520D01*
X226060Y495300D01*
X153670Y739140D02*
X156210Y741680D01*
X158750D01*
X156210Y744220D01*
X158750Y746760D01*
X156210D01*
X153670Y749300D01*
X151130Y746760D01*
X148590D01*
X151130Y744220D01*
X148590Y741680D01*
X151130D01*
X153670Y739140D01*
X95250D02*
X97790Y741680D01*
X100330D01*
X97790Y744220D01*
X100330Y746760D01*
X97790D01*
X95250Y749300D01*
X92710Y746760D01*
X90170D01*
X92710Y744220D01*
X90170Y741680D01*
X92710D01*
X95250Y739140D01*
X276854Y387774D02*
X279394Y390314D01*
X281934D01*
X279394Y392854D01*
X281934Y395394D01*
X279394D01*
X276854Y397934D01*
X274314Y395394D01*
X271774D01*
X274314Y392854D01*
X271774Y390314D01*
X274314D01*
X276854Y387774D01*
X276860Y412750D02*
X279400Y415290D01*
X281940D01*
X279400Y417830D01*
X281940Y420370D01*
X279400D01*
X276860Y422910D01*
X274320Y420370D01*
X271780D01*
X274320Y417830D01*
X271780Y415290D01*
X274320D01*
X276860Y412750D01*
Y432110D02*
X279400Y434650D01*
X281940D01*
X279400Y437190D01*
X281940Y439730D01*
X279400D01*
X276860Y442270D01*
X274320Y439730D01*
X271780D01*
X274320Y437190D01*
X271780Y434650D01*
X274320D01*
X276860Y432110D01*
X269240Y422570D02*
X271780Y425110D01*
X274320D01*
X271780Y427650D01*
X274320Y430190D01*
X271780D01*
X269240Y432730D01*
X266700Y430190D01*
X264160D01*
X266700Y427650D01*
X264160Y425110D01*
X266700D01*
X269240Y422570D01*
X201930Y439420D02*
X204470Y441960D01*
X207010D01*
X204470Y444500D01*
X207010Y447040D01*
X204470D01*
X201930Y449580D01*
X199390Y447040D01*
X196850D01*
X199390Y444500D01*
X196850Y441960D01*
X199390D01*
X201930Y439420D01*
X189230D02*
X191770Y441960D01*
X194310D01*
X191770Y444500D01*
X194310Y447040D01*
X191770D01*
X189230Y449580D01*
X186690Y447040D01*
X184150D01*
X186690Y444500D01*
X184150Y441960D01*
X186690D01*
X189230Y439420D01*
X176530Y436880D02*
X179070Y439420D01*
X181610D01*
X179070Y441960D01*
X181610Y444500D01*
X179070D01*
X176530Y447040D01*
X173990Y444500D01*
X171450D01*
X173990Y441960D01*
X171450Y439420D01*
X173990D01*
X176530Y436880D01*
X163830Y426720D02*
X166370Y429260D01*
X168910D01*
X166370Y431800D01*
X168910Y434340D01*
X166370D01*
X163830Y436880D01*
X161290Y434340D01*
X158750D01*
X161290Y431800D01*
X158750Y429260D01*
X161290D01*
X163830Y426720D01*
X227330D02*
X229870Y429260D01*
X232410D01*
X229870Y431800D01*
X232410Y434340D01*
X229870D01*
X227330Y436880D01*
X224790Y434340D01*
X222250D01*
X224790Y431800D01*
X222250Y429260D01*
X224790D01*
X227330Y426720D01*
X492760Y424180D02*
X495300Y426720D01*
X497840D01*
X495300Y429260D01*
X497840Y431800D01*
X495300D01*
X492760Y434340D01*
X490220Y431800D01*
X487680D01*
X490220Y429260D01*
X487680Y426720D01*
X490220D01*
X492760Y424180D01*
X99060D02*
X101600Y426720D01*
X104140D01*
X101600Y429260D01*
X104140Y431800D01*
X101600D01*
X99060Y434340D01*
X96520Y431800D01*
X93980D01*
X96520Y429260D01*
X93980Y426720D01*
X96520D01*
X99060Y424180D01*
X151130Y440690D02*
X153670Y443230D01*
X156210D01*
X153670Y445770D01*
X156210Y448310D01*
X153670D01*
X151130Y450850D01*
X148590Y448310D01*
X146050D01*
X148590Y445770D01*
X146050Y443230D01*
X148590D01*
X151130Y440690D01*
X491600Y408940D02*
X494140Y411480D01*
X496680D01*
X494140Y414020D01*
X496680Y416560D01*
X494140D01*
X491600Y419100D01*
X489060Y416560D01*
X486520D01*
X489060Y414020D01*
X486520Y411480D01*
X489060D01*
X491600Y408940D01*
X491490Y381000D02*
X494030Y383540D01*
X496570D01*
X494030Y386080D01*
X496570Y388620D01*
X494030D01*
X491490Y391160D01*
X488950Y388620D01*
X486410D01*
X488950Y386080D01*
X486410Y383540D01*
X488950D01*
X491490Y381000D01*
X491600Y353060D02*
X494140Y355600D01*
X496680D01*
X494140Y358140D01*
X496680Y360680D01*
X494140D01*
X491600Y363220D01*
X489060Y360680D01*
X486520D01*
X489060Y358140D01*
X486520Y355600D01*
X489060D01*
X491600Y353060D01*
X269240Y400050D02*
X271780Y402590D01*
X274320D01*
X271780Y405130D01*
X274320Y407670D01*
X271780D01*
X269240Y410210D01*
X266700Y407670D01*
X264160D01*
X266700Y405130D01*
X264160Y402590D01*
X266700D01*
X269240Y400050D01*
X149680Y487682D02*
X152220Y490222D01*
X154760D01*
X152220Y492762D01*
X154760Y495302D01*
X152220D01*
X149680Y497842D01*
X147140Y495302D01*
X144600D01*
X147140Y492762D01*
X144600Y490222D01*
X147140D01*
X149680Y487682D01*
X125730Y600710D02*
X128270Y603250D01*
X130810D01*
X128270Y605790D01*
X130810Y608330D01*
X128270D01*
X125730Y610870D01*
X123190Y608330D01*
X120650D01*
X123190Y605790D01*
X120650Y603250D01*
X123190D01*
X125730Y600710D01*
X91440Y591019D02*
X93980Y593559D01*
X96520D01*
X93980Y596099D01*
X96520Y598639D01*
X93980D01*
X91440Y601179D01*
X88900Y598639D01*
X86360D01*
X88900Y596099D01*
X86360Y593559D01*
X88900D01*
X91440Y591019D01*
X149970Y590780D02*
X152510Y593320D01*
X155050D01*
X152510Y595860D01*
X155050Y598400D01*
X152510D01*
X149970Y600940D01*
X147430Y598400D01*
X144890D01*
X147430Y595860D01*
X144890Y593320D01*
X147430D01*
X149970Y590780D01*
X266565Y514215D02*
X269105Y516755D01*
X271645D01*
X269105Y519295D01*
X271645Y521835D01*
X269105D01*
X266565Y524375D01*
X264025Y521835D01*
X261485D01*
X264025Y519295D01*
X261485Y516755D01*
X264025D01*
X266565Y514215D01*
X100330Y472440D02*
X102870Y474980D01*
X105410D01*
X102870Y477520D01*
X105410Y480060D01*
X102870D01*
X100330Y482600D01*
X97790Y480060D01*
X95250D01*
X97790Y477520D01*
X95250Y474980D01*
X97790D01*
X100330Y472440D01*
X78740Y323850D02*
X81280Y326390D01*
X83820D01*
X81280Y328930D01*
X83820Y331470D01*
X81280D01*
X78740Y334010D01*
X76200Y331470D01*
X73660D01*
X76200Y328930D01*
X73660Y326390D01*
X76200D01*
X78740Y323850D01*
X71120Y307340D02*
X73660Y309880D01*
X76200D01*
X73660Y312420D01*
X76200Y314960D01*
X73660D01*
X71120Y317500D01*
X68580Y314960D01*
X66040D01*
X68580Y312420D01*
X66040Y309880D01*
X68580D01*
X71120Y307340D01*
X87630Y265430D02*
X90170Y267970D01*
X92710D01*
X90170Y270510D01*
X92710Y273050D01*
X90170D01*
X87630Y275590D01*
X85090Y273050D01*
X82550D01*
X85090Y270510D01*
X82550Y267970D01*
X85090D01*
X87630Y265430D01*
X106680Y121920D02*
X109220Y124460D01*
X111760D01*
X109220Y127000D01*
X111760Y129540D01*
X109220D01*
X106680Y132080D01*
X104140Y129540D01*
X101600D01*
X104140Y127000D01*
X101600Y124460D01*
X104140D01*
X106680Y121920D01*
X462280D02*
X464820Y124460D01*
X467360D01*
X464820Y127000D01*
X467360Y129540D01*
X464820D01*
X462280Y132080D01*
X459740Y129540D01*
X457200D01*
X459740Y127000D01*
X457200Y124460D01*
X459740D01*
X462280Y121920D01*
X189230Y299720D02*
X191770Y302260D01*
X194310D01*
X191770Y304800D01*
X194310Y307340D01*
X191770D01*
X189230Y309880D01*
X186690Y307340D01*
X184150D01*
X186690Y304800D01*
X184150Y302260D01*
X186690D01*
X189230Y299720D01*
X201930D02*
X204470Y302260D01*
X207010D01*
X204470Y304800D01*
X207010Y307340D01*
X204470D01*
X201930Y309880D01*
X199390Y307340D01*
X196850D01*
X199390Y304800D01*
X196850Y302260D01*
X199390D01*
X201930Y299720D01*
X93980Y556260D02*
X96520Y558800D01*
X99060D01*
X96520Y561340D01*
X99060Y563880D01*
X96520D01*
X93980Y566420D01*
X91440Y563880D01*
X88900D01*
X91440Y561340D01*
X88900Y558800D01*
X91440D01*
X93980Y556260D01*
X152510Y520930D02*
X155050Y523470D01*
X157590D01*
X155050Y526010D01*
X157590Y528550D01*
X155050D01*
X152510Y531090D01*
X149970Y528550D01*
X147430D01*
X149970Y526010D01*
X147430Y523470D01*
X149970D01*
X152510Y520930D01*
X138430Y472440D02*
X140970Y474980D01*
X143510D01*
X140970Y477520D01*
X143510Y480060D01*
X140970D01*
X138430Y482600D01*
X135890Y480060D01*
X133350D01*
X135890Y477520D01*
X133350Y474980D01*
X135890D01*
X138430Y472440D01*
X125730D02*
X128270Y474980D01*
X130810D01*
X128270Y477520D01*
X130810Y480060D01*
X128270D01*
X125730Y482600D01*
X123190Y480060D01*
X120650D01*
X123190Y477520D01*
X120650Y474980D01*
X123190D01*
X125730Y472440D01*
X138430Y396240D02*
X140970Y398780D01*
X143510D01*
X140970Y401320D01*
X143510Y403860D01*
X140970D01*
X138430Y406400D01*
X135890Y403860D01*
X133350D01*
X135890Y401320D01*
X133350Y398780D01*
X135890D01*
X138430Y396240D01*
X110490D02*
X113030Y398780D01*
X115570D01*
X113030Y401320D01*
X115570Y403860D01*
X113030D01*
X110490Y406400D01*
X107950Y403860D01*
X105410D01*
X107950Y401320D01*
X105410Y398780D01*
X107950D01*
X110490Y396240D01*
X124460D02*
X127000Y398780D01*
X129540D01*
X127000Y401320D01*
X129540Y403860D01*
X127000D01*
X124460Y406400D01*
X121920Y403860D01*
X119380D01*
X121920Y401320D01*
X119380Y398780D01*
X121920D01*
X124460Y396240D01*
X152400D02*
X154940Y398780D01*
X157480D01*
X154940Y401320D01*
X157480Y403860D01*
X154940D01*
X152400Y406400D01*
X149860Y403860D01*
X147320D01*
X149860Y401320D01*
X147320Y398780D01*
X149860D01*
X152400Y396240D01*
X110490Y410210D02*
X113030Y412750D01*
X115570D01*
X113030Y415290D01*
X115570Y417830D01*
X113030D01*
X110490Y420370D01*
X107950Y417830D01*
X105410D01*
X107950Y415290D01*
X105410Y412750D01*
X107950D01*
X110490Y410210D01*
X124460D02*
X127000Y412750D01*
X129540D01*
X127000Y415290D01*
X129540Y417830D01*
X127000D01*
X124460Y420370D01*
X121920Y417830D01*
X119380D01*
X121920Y415290D01*
X119380Y412750D01*
X121920D01*
X124460Y410210D01*
X138430D02*
X140970Y412750D01*
X143510D01*
X140970Y415290D01*
X143510Y417830D01*
X140970D01*
X138430Y420370D01*
X135890Y417830D01*
X133350D01*
X135890Y415290D01*
X133350Y412750D01*
X135890D01*
X138430Y410210D01*
X179070Y326390D02*
X181610Y328930D01*
X184150D01*
X181610Y331470D01*
X184150Y334010D01*
X181610D01*
X179070Y336550D01*
X176530Y334010D01*
X173990D01*
X176530Y331470D01*
X173990Y328930D01*
X176530D01*
X179070Y326390D01*
X110490Y339090D02*
X113030Y341630D01*
X115570D01*
X113030Y344170D01*
X115570Y346710D01*
X113030D01*
X110490Y349250D01*
X107950Y346710D01*
X105410D01*
X107950Y344170D01*
X105410Y341630D01*
X107950D01*
X110490Y339090D01*
X179070D02*
X181610Y341630D01*
X184150D01*
X181610Y344170D01*
X184150Y346710D01*
X181610D01*
X179070Y349250D01*
X176530Y346710D01*
X173990D01*
X176530Y344170D01*
X173990Y341630D01*
X176530D01*
X179070Y339090D01*
X124460D02*
X127000Y341630D01*
X129540D01*
X127000Y344170D01*
X129540Y346710D01*
X127000D01*
X124460Y349250D01*
X121920Y346710D01*
X119380D01*
X121920Y344170D01*
X119380Y341630D01*
X121920D01*
X124460Y339090D01*
Y326390D02*
X127000Y328930D01*
X129540D01*
X127000Y331470D01*
X129540Y334010D01*
X127000D01*
X124460Y336550D01*
X121920Y334010D01*
X119380D01*
X121920Y331470D01*
X119380Y328930D01*
X121920D01*
X124460Y326390D01*
X191770D02*
X194310Y328930D01*
X196850D01*
X194310Y331470D01*
X196850Y334010D01*
X194310D01*
X191770Y336550D01*
X189230Y334010D01*
X186690D01*
X189230Y331470D01*
X186690Y328930D01*
X189230D01*
X191770Y326390D01*
X152400D02*
X154940Y328930D01*
X157480D01*
X154940Y331470D01*
X157480Y334010D01*
X154940D01*
X152400Y336550D01*
X149860Y334010D01*
X147320D01*
X149860Y331470D01*
X147320Y328930D01*
X149860D01*
X152400Y326390D01*
X110490D02*
X113030Y328930D01*
X115570D01*
X113030Y331470D01*
X115570Y334010D01*
X113030D01*
X110490Y336550D01*
X107950Y334010D01*
X105410D01*
X107950Y331470D01*
X105410Y328930D01*
X107950D01*
X110490Y326390D01*
X166370D02*
X168910Y328930D01*
X171450D01*
X168910Y331470D01*
X171450Y334010D01*
X168910D01*
X166370Y336550D01*
X163830Y334010D01*
X161290D01*
X163830Y331470D01*
X161290Y328930D01*
X163830D01*
X166370Y326390D01*
X138430D02*
X140970Y328930D01*
X143510D01*
X140970Y331470D01*
X143510Y334010D01*
X140970D01*
X138430Y336550D01*
X135890Y334010D01*
X133350D01*
X135890Y331470D01*
X133350Y328930D01*
X135890D01*
X138430Y326390D01*
X191770Y339090D02*
X194310Y341630D01*
X196850D01*
X194310Y344170D01*
X196850Y346710D01*
X194310D01*
X191770Y349250D01*
X189230Y346710D01*
X186690D01*
X189230Y344170D01*
X186690Y341630D01*
X189230D01*
X191770Y339090D01*
X179070Y367030D02*
X181610Y369570D01*
X184150D01*
X181610Y372110D01*
X184150Y374650D01*
X181610D01*
X179070Y377190D01*
X176530Y374650D01*
X173990D01*
X176530Y372110D01*
X173990Y369570D01*
X176530D01*
X179070Y367030D01*
Y353060D02*
X181610Y355600D01*
X184150D01*
X181610Y358140D01*
X184150Y360680D01*
X181610D01*
X179070Y363220D01*
X176530Y360680D01*
X173990D01*
X176530Y358140D01*
X173990Y355600D01*
X176530D01*
X179070Y353060D01*
X191770D02*
X194310Y355600D01*
X196850D01*
X194310Y358140D01*
X196850Y360680D01*
X194310D01*
X191770Y363220D01*
X189230Y360680D01*
X186690D01*
X189230Y358140D01*
X186690Y355600D01*
X189230D01*
X191770Y353060D01*
X110490D02*
X113030Y355600D01*
X115570D01*
X113030Y358140D01*
X115570Y360680D01*
X113030D01*
X110490Y363220D01*
X107950Y360680D01*
X105410D01*
X107950Y358140D01*
X105410Y355600D01*
X107950D01*
X110490Y353060D01*
X138430Y382270D02*
X140970Y384810D01*
X143510D01*
X140970Y387350D01*
X143510Y389890D01*
X140970D01*
X138430Y392430D01*
X135890Y389890D01*
X133350D01*
X135890Y387350D01*
X133350Y384810D01*
X135890D01*
X138430Y382270D01*
X124460Y367030D02*
X127000Y369570D01*
X129540D01*
X127000Y372110D01*
X129540Y374650D01*
X127000D01*
X124460Y377190D01*
X121920Y374650D01*
X119380D01*
X121920Y372110D01*
X119380Y369570D01*
X121920D01*
X124460Y367030D01*
Y353060D02*
X127000Y355600D01*
X129540D01*
X127000Y358140D01*
X129540Y360680D01*
X127000D01*
X124460Y363220D01*
X121920Y360680D01*
X119380D01*
X121920Y358140D01*
X119380Y355600D01*
X121920D01*
X124460Y353060D01*
X110490Y367030D02*
X113030Y369570D01*
X115570D01*
X113030Y372110D01*
X115570Y374650D01*
X113030D01*
X110490Y377190D01*
X107950Y374650D01*
X105410D01*
X107950Y372110D01*
X105410Y369570D01*
X107950D01*
X110490Y367030D01*
Y382270D02*
X113030Y384810D01*
X115570D01*
X113030Y387350D01*
X115570Y389890D01*
X113030D01*
X110490Y392430D01*
X107950Y389890D01*
X105410D01*
X107950Y387350D01*
X105410Y384810D01*
X107950D01*
X110490Y382270D01*
X124460D02*
X127000Y384810D01*
X129540D01*
X127000Y387350D01*
X129540Y389890D01*
X127000D01*
X124460Y392430D01*
X121920Y389890D01*
X119380D01*
X121920Y387350D01*
X119380Y384810D01*
X121920D01*
X124460Y382270D01*
X152400D02*
X154940Y384810D01*
X157480D01*
X154940Y387350D01*
X157480Y389890D01*
X154940D01*
X152400Y392430D01*
X149860Y389890D01*
X147320D01*
X149860Y387350D01*
X147320Y384810D01*
X149860D01*
X152400Y382270D01*
X166370D02*
X168910Y384810D01*
X171450D01*
X168910Y387350D01*
X171450Y389890D01*
X168910D01*
X166370Y392430D01*
X163830Y389890D01*
X161290D01*
X163830Y387350D01*
X161290Y384810D01*
X163830D01*
X166370Y382270D01*
X55880Y121920D02*
X58420Y124460D01*
X60960D01*
X58420Y127000D01*
X60960Y129540D01*
X58420D01*
X55880Y132080D01*
X53340Y129540D01*
X50800D01*
X53340Y127000D01*
X50800Y124460D01*
X53340D01*
X55880Y121920D01*
X157480D02*
X160020Y124460D01*
X162560D01*
X160020Y127000D01*
X162560Y129540D01*
X160020D01*
X157480Y132080D01*
X154940Y129540D01*
X152400D01*
X154940Y127000D01*
X152400Y124460D01*
X154940D01*
X157480Y121920D01*
X208280D02*
X210820Y124460D01*
X213360D01*
X210820Y127000D01*
X213360Y129540D01*
X210820D01*
X208280Y132080D01*
X205740Y129540D01*
X203200D01*
X205740Y127000D01*
X203200Y124460D01*
X205740D01*
X208280Y121920D01*
X309880D02*
X312420Y124460D01*
X314960D01*
X312420Y127000D01*
X314960Y129540D01*
X312420D01*
X309880Y132080D01*
X307340Y129540D01*
X304800D01*
X307340Y127000D01*
X304800Y124460D01*
X307340D01*
X309880Y121920D01*
X360680D02*
X363220Y124460D01*
X365760D01*
X363220Y127000D01*
X365760Y129540D01*
X363220D01*
X360680Y132080D01*
X358140Y129540D01*
X355600D01*
X358140Y127000D01*
X355600Y124460D01*
X358140D01*
X360680Y121920D01*
X411480D02*
X414020Y124460D01*
X416560D01*
X414020Y127000D01*
X416560Y129540D01*
X414020D01*
X411480Y132080D01*
X408940Y129540D01*
X406400D01*
X408940Y127000D01*
X406400Y124460D01*
X408940D01*
X411480Y121920D01*
X100330Y295910D02*
X102870Y298450D01*
X105410D01*
X102870Y300990D01*
X105410Y303530D01*
X102870D01*
X100330Y306070D01*
X97790Y303530D01*
X95250D01*
X97790Y300990D01*
X95250Y298450D01*
X97790D01*
X100330Y295910D01*
D74*
X405820Y280320D02*
G03*
X405820Y280320I-5080J0D01*
G01*
X470820D02*
G03*
X470820Y280320I-5080J0D01*
G01*
X405820Y324770D02*
G03*
X405820Y324770I-5080J0D01*
G01*
X470820D02*
G03*
X470820Y324770I-5080J0D01*
G01*
X22860Y615950D02*
G03*
X22860Y615950I-5080J0D01*
G01*
Y550950D02*
G03*
X22860Y550950I-5080J0D01*
G01*
%TF.MD5,c2e35aea48af6741ad55ec6f9b8c476b*%
M02*
