%TF.GenerationSoftware,Altium Limited,Altium Designer,21.4.1 (30)*%
G04 Layer_Color=255*
%FSLAX44Y44*%
%MOMM*%
%TF.SameCoordinates,EB49FF53-C53B-41EF-AC46-A12079E47AB4*%
%TF.FilePolarity,Positive*%
%TF.FileFunction,Pads,Top*%
%TF.Part,Single*%
G01*
G75*
%TA.AperFunction,SMDPad,CuDef*%
%ADD10R,2.3000X1.6000*%
%TA.AperFunction,BGAPad,CuDef*%
%ADD11R,0.9000X0.9000*%
%TA.AperFunction,ConnectorPad*%
%ADD12R,0.9000X1.5000*%
%ADD13R,1.5000X0.9000*%
%TA.AperFunction,SMDPad,CuDef*%
%ADD14R,1.2000X1.8000*%
%ADD15R,1.2000X1.2000*%
%ADD16R,1.5000X2.8000*%
%ADD17R,6.3000X6.1000*%
%ADD18R,0.9000X0.9500*%
%ADD19R,1.0200X1.7800*%
%ADD20R,2.2000X2.1000*%
%ADD21R,0.6000X0.7000*%
%ADD22R,3.8000X1.8500*%
%ADD23R,0.6500X1.5250*%
%TA.AperFunction,ComponentPad*%
%ADD27R,1.9500X1.9500*%
%ADD28C,1.9500*%
%ADD29C,1.8500*%
%ADD30R,1.5000X1.5000*%
%ADD31C,1.5000*%
%ADD32R,1.5000X1.5000*%
D10*
X329340Y711200D02*
D03*
X285340D02*
D03*
D11*
X138130Y358510D02*
D03*
Y372510D02*
D03*
X152130D02*
D03*
X166130D02*
D03*
Y358510D02*
D03*
Y344510D02*
D03*
X152130D02*
D03*
X138130D02*
D03*
X152130Y358510D02*
D03*
D12*
X74930Y461010D02*
D03*
X87630D02*
D03*
X100330D02*
D03*
X113030D02*
D03*
X125730D02*
D03*
X138430D02*
D03*
X151130D02*
D03*
X163830D02*
D03*
X176530D02*
D03*
X189230D02*
D03*
X201930D02*
D03*
X214630D02*
D03*
X227330D02*
D03*
X240030D02*
D03*
Y286010D02*
D03*
X227330D02*
D03*
X214630D02*
D03*
X201930D02*
D03*
X189230D02*
D03*
X176530D02*
D03*
X163830D02*
D03*
X151130D02*
D03*
X138430D02*
D03*
X125730D02*
D03*
X113030D02*
D03*
X100330D02*
D03*
X87630D02*
D03*
X74930D02*
D03*
D13*
X252530Y443360D02*
D03*
Y430660D02*
D03*
Y417960D02*
D03*
Y405260D02*
D03*
Y392560D02*
D03*
Y379860D02*
D03*
Y367160D02*
D03*
Y354460D02*
D03*
Y341760D02*
D03*
Y329060D02*
D03*
Y316360D02*
D03*
Y303660D02*
D03*
D14*
X506600Y358140D02*
D03*
X476600D02*
D03*
X70640Y245000D02*
D03*
X40640D02*
D03*
X70880Y126350D02*
D03*
X40880D02*
D03*
X142480D02*
D03*
X172480D02*
D03*
X193280D02*
D03*
X223280D02*
D03*
X294880D02*
D03*
X324880D02*
D03*
X345680D02*
D03*
X375680D02*
D03*
X396480D02*
D03*
X426480D02*
D03*
X194550Y156350D02*
D03*
X224550D02*
D03*
X375680Y358140D02*
D03*
X345680D02*
D03*
X294880D02*
D03*
X324880D02*
D03*
X326150Y156350D02*
D03*
X296150D02*
D03*
X173750D02*
D03*
X143750D02*
D03*
X122950Y190000D02*
D03*
X92950D02*
D03*
X121680Y126350D02*
D03*
X91680D02*
D03*
X478790Y156350D02*
D03*
X448790D02*
D03*
X477520Y126350D02*
D03*
X447520D02*
D03*
X427750Y156350D02*
D03*
X397750D02*
D03*
X376950D02*
D03*
X346950D02*
D03*
X506600Y441960D02*
D03*
X476600D02*
D03*
X506490Y386080D02*
D03*
X476490D02*
D03*
X506600Y414020D02*
D03*
X476600D02*
D03*
X294880Y293020D02*
D03*
X324880D02*
D03*
X294880Y324770D02*
D03*
X324880D02*
D03*
X40640Y190000D02*
D03*
X70640D02*
D03*
X80250Y666990D02*
D03*
X110250D02*
D03*
X138670Y667200D02*
D03*
X168670D02*
D03*
X79350Y526020D02*
D03*
X109350D02*
D03*
X137770Y526230D02*
D03*
X167770D02*
D03*
X110250Y696200D02*
D03*
X80250D02*
D03*
X168670Y696410D02*
D03*
X138670D02*
D03*
X79220Y552690D02*
D03*
X109220D02*
D03*
X137640Y552900D02*
D03*
X167640D02*
D03*
X110490Y724140D02*
D03*
X80490D02*
D03*
X168910Y724350D02*
D03*
X138910D02*
D03*
X109220Y499350D02*
D03*
X79220D02*
D03*
X167640Y499560D02*
D03*
X137640D02*
D03*
D15*
X421990Y358140D02*
D03*
X442990D02*
D03*
X421990Y441960D02*
D03*
X442990D02*
D03*
X421990Y414020D02*
D03*
X442990D02*
D03*
X421990Y386080D02*
D03*
X442990D02*
D03*
D16*
X205740Y493760D02*
D03*
X251460D02*
D03*
Y639810D02*
D03*
X205740D02*
D03*
D17*
X228600Y556260D02*
D03*
Y702310D02*
D03*
D18*
X192530Y96350D02*
D03*
X224030D02*
D03*
X325630D02*
D03*
X294130D02*
D03*
X173230D02*
D03*
X141730D02*
D03*
X122430D02*
D03*
X90930D02*
D03*
X478270D02*
D03*
X446770D02*
D03*
X427230D02*
D03*
X395730D02*
D03*
X376430D02*
D03*
X344930D02*
D03*
X40130D02*
D03*
X71630D02*
D03*
D19*
X296080Y441960D02*
D03*
X323680D02*
D03*
X296080Y414020D02*
D03*
X323680D02*
D03*
X346880Y293020D02*
D03*
X374480D02*
D03*
X346880Y324770D02*
D03*
X374480D02*
D03*
X384830Y721505D02*
D03*
X357230D02*
D03*
X384830Y698645D02*
D03*
X357230D02*
D03*
X194360Y609330D02*
D03*
X221960D02*
D03*
X266530Y609600D02*
D03*
X238930D02*
D03*
X25570Y696200D02*
D03*
X53170D02*
D03*
X69440Y220000D02*
D03*
X41840D02*
D03*
D20*
X347800Y429260D02*
D03*
X388800D02*
D03*
D21*
X351180Y376080D02*
D03*
X370180D02*
D03*
X360680Y396080D02*
D03*
D22*
X347040Y504190D02*
D03*
X293040D02*
D03*
X347040Y577850D02*
D03*
X293040D02*
D03*
X347040Y652780D02*
D03*
X293040D02*
D03*
D23*
X78740Y580180D02*
D03*
X91440D02*
D03*
X104140D02*
D03*
X116840D02*
D03*
Y634420D02*
D03*
X104140D02*
D03*
X91440D02*
D03*
X78740D02*
D03*
X137160Y580390D02*
D03*
X149860D02*
D03*
X162560D02*
D03*
X175260D02*
D03*
Y634630D02*
D03*
X162560D02*
D03*
X149860D02*
D03*
X137160D02*
D03*
D27*
X497390Y779780D02*
D03*
X39370D02*
D03*
X497390Y40040D02*
D03*
D28*
X447390Y779780D02*
D03*
X397390D02*
D03*
X453700Y489190D02*
D03*
X393700Y509190D02*
D03*
Y631190D02*
D03*
X513700D02*
D03*
Y509190D02*
D03*
X289370Y779780D02*
D03*
X239370D02*
D03*
X189370D02*
D03*
X139370D02*
D03*
X89370D02*
D03*
X446590Y40040D02*
D03*
X395790D02*
D03*
X344990D02*
D03*
X294190D02*
D03*
X243390D02*
D03*
X192590D02*
D03*
X141790D02*
D03*
X90990D02*
D03*
X40190D02*
D03*
D29*
X400740Y280320D02*
D03*
X465740D02*
D03*
X400740Y324770D02*
D03*
X465740D02*
D03*
X17780Y615950D02*
D03*
Y550950D02*
D03*
D30*
X520700Y254000D02*
D03*
X551180Y558800D02*
D03*
X50800Y615950D02*
D03*
D31*
X520700Y228600D02*
D03*
Y203200D02*
D03*
Y177800D02*
D03*
X551180D02*
D03*
Y203200D02*
D03*
Y228600D02*
D03*
Y254000D02*
D03*
Y279400D02*
D03*
Y304800D02*
D03*
Y330200D02*
D03*
Y355600D02*
D03*
Y381000D02*
D03*
Y406400D02*
D03*
Y431800D02*
D03*
Y457200D02*
D03*
Y482600D02*
D03*
Y508000D02*
D03*
Y533400D02*
D03*
X231140Y247650D02*
D03*
X205740D02*
D03*
X180340D02*
D03*
X50800Y590550D02*
D03*
Y565150D02*
D03*
Y539750D02*
D03*
Y514350D02*
D03*
Y488950D02*
D03*
D32*
X256540Y247650D02*
D03*
%TF.MD5,15857bde7ae97534118ad6ffc14c6753*%
M02*
