%TF.GenerationSoftware,Altium Limited,Altium Designer,21.4.1 (30)*%
G04 Layer_Color=255*
%FSLAX44Y44*%
%MOMM*%
%TF.SameCoordinates,EB49FF53-C53B-41EF-AC46-A12079E47AB4*%
%TF.FilePolarity,Positive*%
%TF.FileFunction,Pads,Bot*%
%TF.Part,Single*%
G01*
G75*
%TA.AperFunction,ComponentPad*%
%ADD27R,1.9500X1.9500*%
%ADD28C,1.9500*%
%ADD29C,1.8500*%
%ADD30R,1.5000X1.5000*%
%ADD31C,1.5000*%
%ADD32R,1.5000X1.5000*%
D27*
X497390Y779780D02*
D03*
X39370D02*
D03*
X497390Y40040D02*
D03*
D28*
X447390Y779780D02*
D03*
X397390D02*
D03*
X453700Y489190D02*
D03*
X393700Y509190D02*
D03*
Y631190D02*
D03*
X513700D02*
D03*
Y509190D02*
D03*
X289370Y779780D02*
D03*
X239370D02*
D03*
X189370D02*
D03*
X139370D02*
D03*
X89370D02*
D03*
X446590Y40040D02*
D03*
X395790D02*
D03*
X344990D02*
D03*
X294190D02*
D03*
X243390D02*
D03*
X192590D02*
D03*
X141790D02*
D03*
X90990D02*
D03*
X40190D02*
D03*
D29*
X400740Y280320D02*
D03*
X465740D02*
D03*
X400740Y324770D02*
D03*
X465740D02*
D03*
X17780Y615950D02*
D03*
Y550950D02*
D03*
D30*
X520700Y254000D02*
D03*
X551180Y558800D02*
D03*
X50800Y615950D02*
D03*
D31*
X520700Y228600D02*
D03*
Y203200D02*
D03*
Y177800D02*
D03*
X551180D02*
D03*
Y203200D02*
D03*
Y228600D02*
D03*
Y254000D02*
D03*
Y279400D02*
D03*
Y304800D02*
D03*
Y330200D02*
D03*
Y355600D02*
D03*
Y381000D02*
D03*
Y406400D02*
D03*
Y431800D02*
D03*
Y457200D02*
D03*
Y482600D02*
D03*
Y508000D02*
D03*
Y533400D02*
D03*
X231140Y247650D02*
D03*
X205740D02*
D03*
X180340D02*
D03*
X50800Y590550D02*
D03*
Y565150D02*
D03*
Y539750D02*
D03*
Y514350D02*
D03*
Y488950D02*
D03*
D32*
X256540Y247650D02*
D03*
%TF.MD5,cd1f650d673b171d9dbda0e7735453d6*%
M02*
